<?xml version="1.0" standalone="no"?>
<!DOCTYPE svg PUBLIC "-//W3C//DTD SVG 1.1//EN" "http://www.w3.org/Graphics/SVG/1.1/DTD/svg11.dtd">
<svg xmlns="http://www.w3.org/2000/svg">
<defs >
<font id="Saira" horiz-adv-x="564" ><font-face
    font-family="Saira Thin ExtraLight"
    units-per-em="1000"
    panose-1="0 0 0 0 0 0 0 0 0 0"
    ascent="1135"
    descent="-439"
    alphabetic="0" />
<glyph unicode=" " horiz-adv-x="227" />
<glyph unicode="!" horiz-adv-x="210" d="M88 179Q86 222 86 265T84 350T81 429T80 497T80 552V688H132V552Q132 528 132 497T131 429T129 351T126 266T124 179H88ZM76 0V73H135V0H76Z" />
<glyph unicode="&quot;" horiz-adv-x="289" d="M184 452L175 602V688H224V602L215 452H184ZM74 452L65 602V688H114V602L105 452H74Z" />
<glyph unicode="#" horiz-adv-x="823" d="M131 0L176 199H75V240H186L232 439H112V479H242L290 688H331L282 479H476L525 688H565L517 479H625V439H508L461 240H588V199H452L406 0H366L411 199H217L172 0H131ZM226 240H421L467 439H273L226 240Z" />
<glyph unicode="$" horiz-adv-x="537" d="M273 68Q241 69 208 70T146 73T94 80V122Q116 119 136 117T175 113T215 111T263 110Q327 109 358 117T401 149T413 217Q413 263 407 283T385 310T343 318L190 333Q145 339 121 352T87 393T77 467Q77 516 89 546T126 592T185
613T266 619Q296 619 325 618T382 614T431 606V564Q406 568 377 571T320 575T267 577Q235 577 209 575T164 564T135 533T124 473Q124 434 130 414T152 387T197 377L357 362Q398 358 420 346T451 303T460 217Q460 156 441 124T382 80T273 68ZM250 -8V696H292V-8H250Z"
/>
<glyph unicode="%" horiz-adv-x="802" d="M153 0L602 688H649L200 0H153ZM196 311Q149 311 121 318T80 347T63 405T59 503Q59 563 63 601T80 659T121 688T196 696Q244 696 271 688T312 660T329 601T333 503Q333 443 329 406T312 347T272 319T196 311ZM196 349Q229
349 248 352T277 369T289 414T292 503Q292 560 290 592T279 637T251 654T196 658Q164 658 145 655T116 638T103 592T100 503Q100 446 103 415T115 370T144 353T196 349ZM607 -8Q559 -8 532 -1T491 28T474 86T470 184Q470 244 474 282T491 340T531 369T607 377Q655
377 682 369T722 341T739 282T743 184Q743 124 740 87T723 28T682 0T607 -8ZM607 30Q640 30 659 33T687 50T700 95T703 184Q703 241 701 273T690 318T662 335T607 339Q574 339 555 336T527 319T514 273T511 184Q511 127 514 96T526 51T555 34T607 30Z" />
<glyph unicode="&amp;" horiz-adv-x="734" d="M363 -8Q287 -8 236 0T153 24T104 64T81 117T75 184Q75 240 89 272T132 322T200 349V353Q140 367 111 403T81 515Q81 556 92 589T132 646T217 683T362 696Q393 696 430 694T503 688T567 679V639Q537 644 504 647T439
653T384 655Q299 655 248 647T171 622T136 577T127 511Q127 489 131 465T151 419T200 384T291 370H401V327H291Q233 327 199 317T148 287T126 240T121 179Q121 115 147 84T227 43T363 33Q393 33 426 34T492 39T553 48L525 19V370H691V327H571V9Q548 5 514 1T441
-5T363 -8Z" />
<glyph unicode="&apos;" horiz-adv-x="179" d="M74 452L65 602V688H114V602L105 452H74Z" />
<glyph unicode="(" horiz-adv-x="286" d="M226 -150Q195 -112 172 -80T133 -14T107 62T93 161T88 297Q88 376 92 432T106 531T132 607T172 673T226 743H266Q240 709 219 680T182 618T155 543T139 441T133 297Q133 213 138 154T155 52T182 -24T219 -86T266 -150H226Z" />
<glyph unicode=")" horiz-adv-x="286" d="M20 -150Q46 -115 67 -86T104 -24T131 51T147 153T153 297Q153 381 148 440T131 542T104 617T67 679T20 743H60Q91 705 114 673T153 607T179 531T193 433T198 297Q198 218 194 161T180 62T154 -14T114 -80T60 -150H20Z" />
<glyph unicode="*" horiz-adv-x="439" d="M198 321L204 477L71 394L50 431L188 504L50 578L71 615L204 531L198 688H241L234 531L368 615L389 578L251 504L389 431L368 394L235 477L241 321H198Z" />
<glyph unicode="+" horiz-adv-x="540" d="M249 53V233H70V273H249V453H289V273H470V233H289V53H249Z" />
<glyph unicode="," horiz-adv-x="187" d="M36 -106V-80Q59 -80 70 -75T85 -55T88 -17V0H64V73H123V-4Q123 -34 120 -54T107 -85T80 -101T36 -106Z" />
<glyph unicode="-" horiz-adv-x="357" d="M64 263V308H293V263H64Z" />
<glyph unicode="." horiz-adv-x="187" d="M64 0V73H123V0H64Z" />
<glyph unicode="/" horiz-adv-x="335" d="M-1 -55L289 743H336L45 -55H-1Z" />
<glyph unicode="0" horiz-adv-x="675" d="M337 -8Q264 -8 217 -1T143 27T105 87T90 188T87 344Q87 437 90 499T104 601T143 660T217 688T337 696Q411 696 458 689T531 661T570 601T585 500T588 344Q588 251 585 189T570 87T532 28T458 0T337 -8ZM337 36Q397 36
434 39T493 57T525 105T537 196T540 344Q540 434 538 492T525 583T494 630T435 648T337 652Q279 652 241 649T182 631T150 583T137 492T135 344Q135 254 137 196T149 105T181 58T241 40T337 36Z" />
<glyph unicode="1" horiz-adv-x="368" d="M194 0V629L47 553V600L206 688H242V0H194Z" />
<glyph unicode="2" horiz-adv-x="608" d="M78 0V73Q78 129 80 165T92 225T125 265T192 301L392 387Q430 404 449 420T475 460T483 520Q483 577 467 605T411 642T298 652Q272 652 236 651T163 647T92 641V682Q119 686 156 689T233 694T310 696Q356 696 396 692T466
672T514 622T531 529Q531 472 519 439T480 384T405 342L178 244Q151 232 140 215T127 172T125 105V44H531V0H78Z" />
<glyph unicode="3" horiz-adv-x="597" d="M260 -8Q231 -8 196 -6T126 -1T64 7V48Q98 45 134 42T203 38T259 36Q324 36 370 45T442 85T467 179Q467 232 452 264T405 312T319 327H183V371H319Q353 371 384 382T437 423T459 511Q459 573 437 603T368 643T249 652Q223
652 192 651T128 647T68 640V681Q95 685 129 688T198 694T261 696Q332 696 379 686T455 654T495 599T507 515Q507 440 476 403T390 354V350Q428 344 456 327T499 275T515 184Q515 139 505 103T469 42T392 5T260 -8Z" />
<glyph unicode="4" horiz-adv-x="639" d="M431 0V172H52V212L328 688H383L107 216H432L436 503H479V216H586V172H479V0H431Z" />
<glyph unicode="5" horiz-adv-x="617" d="M285 -8Q255 -8 220 -6T150 -1T88 7V48Q122 45 158 42T227 38T283 36Q348 36 388 44T451 70T482 120T491 198Q491 249 482 280T449 327T380 348T265 354Q249 354 222 352T163 347T96 339V688H488V644H142V386Q164 390
191 392T247 396T307 398Q385 398 431 386T500 350T531 290T539 206Q539 146 529 105T490 39T413 4T285 -8Z" />
<glyph unicode="6" horiz-adv-x="650" d="M349 -8Q280 -8 231 -1T151 31T103 107Q96 128 93 160T88 235T87 335Q87 390 88 434T94 513T107 574Q123 625 154 651T235 686T356 696Q381 696 413 694T482 689T552 681V640Q522 644 489 646T424 650T367 652Q289 652
243 641T174 598T143 506T135 349H141Q153 362 174 374T238 393T351 400Q417 400 463 394T538 369T578 313T590 212Q590 147 581 104T547 37T474 2T349 -8ZM341 36Q402 36 441 40T503 61T533 108T542 193Q542 251 534 284T505 332T444 352T341 357Q272 357 231
350T170 327T144 288T138 227Q138 163 147 125T180 68T242 42T341 36Z" />
<glyph unicode="7" horiz-adv-x="559" d="M156 0L449 644H44V688H503V650L210 0H156Z" />
<glyph unicode="8" horiz-adv-x="682" d="M341 -8Q258 -8 207 3T129 39T92 100T82 184Q82 245 96 277T139 325T207 349V353Q146 364 117 402T88 515Q88 562 99 596T139 653T216 685T341 696Q417 696 466 686T543 653T582 597T594 515Q594 440 565 402T475 353V349Q516
341 543 326T585 278T600 184Q600 136 590 100T553 40T475 4T341 -8ZM341 36Q421 36 467 46T532 88T551 179Q551 227 542 256T510 300T446 321T341 326Q277 326 236 321T172 301T140 256T131 179Q131 120 150 89T215 47T341 36ZM341 370Q423 370 467 382T528 425T545
511Q545 566 529 596T469 639T341 652Q257 652 213 640T153 597T137 511Q137 456 154 425T215 382T341 370Z" />
<glyph unicode="9" horiz-adv-x="650" d="M294 -8Q268 -8 235 -6T166 -1T98 7V48Q128 45 160 42T225 38T284 36Q361 36 407 47T476 90T507 182T515 339H509Q498 326 476 314T412 295T299 288Q233 288 187 294T113 319T73 375T60 476Q60 541 69 584T104 651T176
686T301 696Q371 696 420 689T500 659T545 588Q557 549 560 492T563 353Q563 298 562 253T555 171T540 106Q525 60 494 36T414 2T294 -8ZM309 331Q378 331 419 338T480 361T506 400T512 461Q512 525 503 563T470 620T408 646T309 652Q248 652 209 648T147 627T117
580T108 495Q108 437 116 404T145 356T206 336T309 331Z" />
<glyph unicode=":" horiz-adv-x="187" d="M64 437V510H123V437H64ZM64 0V73H123V0H64Z" />
<glyph unicode=";" horiz-adv-x="187" d="M36 -106V-80Q59 -80 70 -75T85 -55T88 -17V0H64V73H123V-4Q123 -34 120 -54T107 -85T80 -101T36 -106ZM64 437V510H123V437H64Z" />
<glyph unicode="&lt;" horiz-adv-x="541" d="M471 45L71 224V282L471 461V416L104 253L471 90V45Z" />
<glyph unicode="=" horiz-adv-x="540" d="M70 333V373H470V333H70ZM70 133V173H470V133H70Z" />
<glyph unicode="&gt;" horiz-adv-x="541" d="M70 45V90L437 253L70 416V461L470 282V224L70 45Z" />
<glyph unicode="?" horiz-adv-x="498" d="M162 179V264Q162 302 169 321T195 350T243 371L273 381Q317 397 337 411T365 451T372 524Q372 582 357 609T306 644T209 652Q194 652 175 651T132 649T86 645T40 640V682Q67 686 99 689T163 694T219 696Q272 696 309
689T371 664T408 614T420 533Q420 500 418 473T407 424T380 386T331 358L306 350Q270 336 250 328T221 311T210 291T207 258V179H162ZM155 0V73H214V0H155Z" />
<glyph unicode="@" horiz-adv-x="925" d="M463 -108Q352 -108 282 -100T172 -67T115 1T93 117T88 294Q88 399 92 470T114 586T171 655T281 687T463 696Q573 696 643 688T753 655T811 587T833 471T837 294Q837 215 831 171T809 106T771 80T712 75H602L599 144H594Q583
110 557 94T500 73T439 68Q386 68 352 78T302 115T285 194Q285 241 296 269T335 309T414 321Q428 321 459 321T528 319T595 317V351Q595 396 590 421T570 459T527 475T452 479Q437 479 418 478T380 476T344 472T315 468V508Q346 513 386 515T468 518Q523 518 556
511T608 485T632 436T639 356V108H724Q743 108 757 112T781 132T795 187T800 294Q800 396 796 463T777 570T728 629T636 654Q604 659 561 661T462 663Q409 663 367 661T292 655Q232 649 198 630T148 571T129 464T125 294Q125 190 129 122T151 15T207 -43T314 -68Q334
-70 373 -72T463 -74Q494 -74 521 -74T572 -74T612 -73T639 -71V-105Q626 -106 614 -106T582 -107T535 -108T463 -108ZM444 106Q501 106 534 119T581 163T595 252V284H425Q386 284 365 279T337 254T329 195Q329 159 337 140T371 113T444 106Z" />
<glyph unicode="A" horiz-adv-x="683" d="M37 0L315 688H368L646 0H595L509 214H173L87 0H37ZM190 258H492L344 628H339L190 258Z" />
<glyph unicode="B" horiz-adv-x="686" d="M111 0V688H421Q489 688 527 666T581 606T596 516Q596 473 585 440T548 384T479 354V350Q534 341 560 315T595 253T604 180Q604 147 597 115T570 57T513 16T414 0H111ZM159 44H412Q467 44 498 59T543 106T556 185Q556
234 541 265T495 312T412 327H159V44ZM159 371H409Q454 371 485 386T532 433T548 507Q548 554 536 584T494 629T409 644H159V371Z" />
<glyph unicode="C" horiz-adv-x="577" d="M356 -8Q287 -8 239 -1T162 26T116 84T93 186T87 344Q87 437 93 500T115 601T161 660T239 688T356 696Q382 696 410 695T464 690T510 683V642Q490 645 465 647T415 651T369 652Q306 652 263 647T195 626T156 576T139 486T135
344Q135 259 139 203T156 113T194 63T263 41T369 36Q404 36 444 39T514 46V3Q494 0 467 -2T410 -6T356 -8Z" />
<glyph unicode="D" horiz-adv-x="692" d="M111 0V688H320Q401 688 453 681T536 654T582 596T601 496T605 344Q605 253 601 192T582 93T537 34T454 7T320 0H111ZM159 44H301Q374 44 421 47T496 64T536 110T553 199T557 344Q557 432 553 489T536 578T495 624T420
641T301 644H159V44Z" />
<glyph unicode="E" horiz-adv-x="599" d="M111 0V688H542V644H159V370H495V326H159V44H542V0H111Z" />
<glyph unicode="F" horiz-adv-x="562" d="M111 0V688H522V644H159V355H485V312H159V0H111Z" />
<glyph unicode="G" horiz-adv-x="681" d="M371 -8Q300 -8 250 -1T168 27T119 87T94 188T87 344Q87 437 94 499T119 601T169 660T251 688T371 696Q405 696 443 694T518 687T581 677V636Q551 641 518 644T455 650T404 652Q338 652 291 649T214 632T166 584T142 494T135
344Q135 263 139 208T157 119T197 67T265 42T371 35Q394 35 424 37T485 41T537 46V311H352V354H584V10Q552 4 514 0T439 -6T371 -8Z" />
<glyph unicode="H" horiz-adv-x="736" d="M111 0V688H159V370H577V688H625V0H577V326H159V0H111Z" />
<glyph unicode="I" horiz-adv-x="271" d="M111 0V688H159V0H111Z" />
<glyph unicode="J" horiz-adv-x="331" d="M38 0V43Q92 45 121 50T163 73T178 132T181 248V688H229V268Q229 192 227 142T215 64T185 22T129 5T38 0Z" />
<glyph unicode="K" horiz-adv-x="666" d="M111 0V688H159V371H320L572 688H626L360 350L629 0H573L320 327H159V0H111Z" />
<glyph unicode="L" horiz-adv-x="536" d="M111 0V688H159V44H502V0H111Z" />
<glyph unicode="M" horiz-adv-x="913" d="M111 0V688H174L454 74H459L739 688H801V0H754V602H750L475 0H436L161 602H157V0H111Z" />
<glyph unicode="N" horiz-adv-x="736" d="M111 0V688H159L575 89H579V688H625V0H579L162 602H158V0H111Z" />
<glyph unicode="O" horiz-adv-x="724" d="M362 -8Q284 -8 233 -1T153 27T109 87T91 188T87 344Q87 437 91 499T109 601T152 660T233 688T362 696Q440 696 491 689T571 661T615 601T633 500T637 344Q637 251 633 189T615 87T572 28T491 0T362 -8ZM362 36Q424 36
465 39T532 57T569 105T585 195T589 344Q589 435 586 492T570 583T532 630T466 648T362 652Q299 652 258 649T192 631T155 583T139 493T135 344Q135 253 138 196T154 105T192 58T258 40T362 36Z" />
<glyph unicode="P" horiz-adv-x="654" d="M111 0V688H403Q470 688 508 671T564 625T587 559T592 479Q592 437 587 399T564 332T507 286T402 269H159V0H111ZM159 313H394Q447 313 477 324T521 356T540 408T544 479Q544 518 541 549T523 601T479 633T394 644H159V313Z" />
<glyph unicode="Q" horiz-adv-x="724" d="M593 -115L343 218H398L650 -113V-115H593ZM362 -8Q284 -8 233 -1T153 27T109 87T91 188T87 344Q87 437 91 499T109 601T152 660T233 688T362 696Q440 696 491 689T571 661T615 601T633 500T637 344Q637 251 633 189T615
87T572 28T491 0T362 -8ZM362 36Q424 36 465 39T532 57T569 105T585 195T589 344Q589 435 586 492T570 583T532 630T466 648T362 652Q299 652 258 649T192 631T155 583T139 493T135 344Q135 253 138 196T154 105T192 58T258 40T362 36Z" />
<glyph unicode="R" horiz-adv-x="684" d="M111 0V688H420Q484 688 520 672T574 627T595 563T600 489Q600 449 594 410T564 342T488 298L608 0H555L436 300L453 293Q446 291 435 290T402 289H159V0H111ZM159 333H398Q452 333 483 344T528 376T547 425T552 489Q552
524 549 552T532 601T490 633T411 644H159V333Z" />
<glyph unicode="S" horiz-adv-x="634" d="M332 -8Q296 -8 253 -7T170 -2T97 4V49Q131 46 171 43T251 38T318 36Q370 36 404 40T467 59Q486 70 495 88T506 132T509 185Q509 228 507 253T494 293T458 313T390 324L210 343Q162 348 135 361T96 396T80 447T77 512Q77
571 91 607T135 663T210 689T317 696Q355 696 394 695T467 690T522 682V640Q495 644 460 646T390 650T323 652Q263 652 225 646T163 624Q138 608 132 579T125 511Q125 465 131 440T158 404T220 389L393 370Q435 367 466 361T518 340T548 295Q552 282 554 267T556
232T557 190Q557 134 547 97T517 39T470 8T408 -5T332 -8Z" />
<glyph unicode="T" horiz-adv-x="582" d="M267 0V644H38V688H544V644H315V0H267Z" />
<glyph unicode="U" horiz-adv-x="715" d="M358 -8Q288 -8 241 0T167 29T125 84T106 171T102 296V688H150V265Q150 195 155 151T180 81T242 46T358 36Q432 36 473 45T535 80T560 150T565 265V688H613V296Q613 223 609 171T591 84T550 29T475 1T358 -8Z" />
<glyph unicode="V" horiz-adv-x="663" d="M305 0L37 688H89L329 66H334L576 688H625L358 0H305Z" />
<glyph unicode="W" horiz-adv-x="985" d="M245 0L45 688H96L270 76H276L468 688H519L712 76H717L891 688H940L740 0H689L494 607H490L296 0H245Z" />
<glyph unicode="X" horiz-adv-x="674" d="M37 0L308 346L41 688H100L334 388H341L577 688H634L366 347L637 0H578L341 304H333L94 0H37Z" />
<glyph unicode="Y" horiz-adv-x="601" d="M276 0V277L18 688H72L298 326H305L531 688H583L324 277V0H276Z" />
<glyph unicode="Z" horiz-adv-x="602" d="M58 0V41L480 644H69V688H541V647L119 44H548V0H58Z" />
<glyph unicode="[" horiz-adv-x="316" d="M111 -150V743H275V704L156 700V-107L275 -111V-150H111Z" />
<glyph unicode="\" horiz-adv-x="335" d="M290 -55L-1 743H46L336 -55H290Z" />
<glyph unicode="]" horiz-adv-x="316" d="M40 -150V-111L159 -107V700L40 704V743H204V-150H40Z" />
<glyph unicode="^" horiz-adv-x="467" d="M65 444L204 749H262L401 444H357L233 718L109 444H65Z" />
<glyph unicode="_" horiz-adv-x="344" d="M0 -162V-122H344V-162H0Z" />
<glyph unicode="`" horiz-adv-x="162" d="M127 603L0 736V741H56L162 608V603H127Z" />
<glyph unicode="a" horiz-adv-x="573" d="M243 -8Q181 -8 141 3T82 46T63 139Q63 195 76 227T122 272T215 285Q226 285 250 285T306 284T370 283T430 281V323Q430 377 424 407T399 453T347 473T259 477Q236 477 206 475T146 471T98 465V506Q130 511 176 514T276
518Q326 518 361 513T419 495T454 461T471 406T476 328V0H437L434 80H430Q415 41 384 22T316 -2T243 -8ZM249 32Q283 32 314 35T370 51T407 89Q420 117 425 145T430 210V247H227Q180 247 154 240T118 209T108 140Q108 96 119 73T161 41T249 32Z" />
<glyph unicode="b" horiz-adv-x="595" d="M324 -8Q285 -8 249 -2T185 23T143 81H139L136 0H97V743H143V438H147Q160 468 183 485T242 510T325 518Q386 518 425 507T485 466T514 386T522 255Q522 176 514 125T485 44T425 4T324 -8ZM309 34Q363 34 396 41T447 71T470
138T476 255Q476 328 470 372T447 438T397 468T309 476Q246 476 210 459T159 405Q148 373 146 338T143 255Q143 210 145 175T158 107Q172 68 209 51T309 34Z" />
<glyph unicode="c" horiz-adv-x="458" d="M275 -8Q219 -8 183 1T124 30T91 80T77 154T73 254Q73 317 77 361T95 436T130 484T187 510T270 518Q304 518 341 515T402 506V466Q377 470 343 473T281 477Q228 477 196 468T147 434T125 367T119 256Q119 186 124 142T147
74T197 42T283 33Q314 33 349 36T407 45V4Q384 -1 347 -4T275 -8Z" />
<glyph unicode="d" horiz-adv-x="595" d="M271 -8Q209 -8 170 3T110 44T81 124T73 255Q73 334 81 385T110 466T169 506T270 518Q317 518 352 511T411 486T447 438H452V743H498V0H459L456 81H451Q437 42 409 23T345 -2T271 -8ZM286 34Q348 34 385 51T436 105Q448
139 450 177T452 267Q452 303 450 336T439 396Q423 440 386 458T281 476Q229 476 197 469T147 439T125 372T119 255Q119 182 125 138T148 72T198 42T286 34Z" />
<glyph unicode="e" horiz-adv-x="561" d="M292 -8Q234 -8 195 -1T131 24T94 72T77 147T73 254Q73 328 78 378T103 459T169 504T293 518Q349 518 385 510T442 484T473 435T486 360T489 256V239H119Q119 177 124 137T147 73T201 42T300 33Q326 33 356 34T416 39T469
46V5Q449 1 420 -2T357 -6T292 -8ZM443 258V296Q443 357 436 393T412 447T365 471T290 477Q232 477 198 470T147 442T124 382T119 278H463L443 258Z" />
<glyph unicode="f" horiz-adv-x="351" d="M136 0V469H29V510H136V617Q136 651 143 674T164 710T201 731T252 741T317 743V705Q277 705 251 702T210 690T189 665T182 625V510H317V469H182V0H136Z" />
<glyph unicode="g" horiz-adv-x="595" d="M278 -206Q246 -206 212 -205T147 -203T93 -198V-158Q121 -160 152 -161T214 -164T270 -165Q331 -165 367 -155T421 -120T446 -52T452 57V73H447Q435 43 412 26T353 1T271 -7Q208 -7 170 4T110 44T81 124T73 255Q73 334
81 385T110 466T170 506T271 518Q309 518 345 512T409 487T451 429H456L459 510H498V71Q498 -7 491 -60T461 -146T395 -192T278 -206ZM286 34Q349 34 386 51T436 109Q447 138 449 174T452 255Q452 300 450 334T439 395Q424 440 386 458T286 476Q231 476 198 469T148
439T125 372T119 255Q119 182 125 138T148 72T198 42T286 34Z" />
<glyph unicode="h" horiz-adv-x="603" d="M97 0V743H143V437H147Q155 456 172 474T225 505T322 518Q382 518 418 507T474 472T499 411T506 320V0H460V309Q460 364 455 397T433 447T387 470T309 476Q247 476 213 460T164 416T146 348T143 264V0H97Z" />
<glyph unicode="i" horiz-adv-x="240" d="M93 675V743H147V675H93ZM97 0V510H143V0H97Z" />
<glyph unicode="j" horiz-adv-x="240" d="M93 675V743H147V675H93ZM-4 -200V-162Q43 -162 64 -157T91 -140T97 -105V510H143V-93Q143 -131 135 -152T108 -184T63 -197T-4 -200Z" />
<glyph unicode="k" horiz-adv-x="524" d="M97 0V743H143V281H223L428 510H483L261 262L486 0H429L223 238H143V0H97Z" />
<glyph unicode="l" horiz-adv-x="240" d="M97 0V743H143V0H97Z" />
<glyph unicode="m" horiz-adv-x="890" d="M97 0V510H136L139 429H143Q151 453 167 473T216 505T303 518Q377 518 412 498T459 429H464Q472 453 489 473T540 505T628 518Q700 518 735 498T782 435T794 320V0H747V309Q747 364 743 397T725 447T685 470T615 476Q561
476 531 462T487 419T471 352T468 264V0H422V309Q422 364 418 397T399 447T359 470T290 476Q235 476 205 460T162 416T146 348T143 264V0H97Z" />
<glyph unicode="n" horiz-adv-x="603" d="M97 0V510H136L139 429H143Q152 453 170 473T225 505T322 518Q382 518 418 507T474 472T499 411T506 320V0H460V309Q460 364 455 397T433 447T387 470T309 476Q247 476 213 460T164 416T146 348T143 264V0H97Z" />
<glyph unicode="o" horiz-adv-x="579" d="M290 -8Q228 -8 188 -2T125 22T90 69T76 144T73 254Q73 319 76 364T90 440T124 487T188 511T290 518Q351 518 391 511T454 487T489 440T504 365T507 254Q507 190 504 145T490 69T455 22T391 -1T290 -8ZM290 33Q354 33
389 41T439 73T457 140T460 254Q460 325 457 369T439 436T389 468T290 477Q226 477 191 469T140 437T122 369T119 254Q119 184 122 140T140 73T190 42T290 33Z" />
<glyph unicode="p" horiz-adv-x="595" d="M97 -200V510H136L139 429H143Q157 468 185 487T249 512T324 518Q386 518 425 507T485 466T514 386T522 255Q522 176 514 125T485 44T425 4T325 -8Q278 -8 243 -1T184 24T147 72H143V-200H97ZM309 34Q363 34 396 41T447
71T470 138T476 255Q476 328 470 372T447 438T397 468T309 476Q246 476 209 459T157 400Q147 370 145 335T143 255Q143 210 145 176T154 118Q170 72 208 53T309 34Z" />
<glyph unicode="q" horiz-adv-x="595" d="M452 -200V72H447Q435 42 411 25T352 0T270 -8Q208 -8 170 3T110 44T81 124T73 255Q73 334 81 385T110 466T170 506T271 518Q309 518 345 512T409 487T451 429H456L459 510H498V-200H452ZM286 34Q349 34 386 52T439 114Q448
140 450 175T452 255Q452 300 450 336T435 406Q423 443 386 459T286 476Q231 476 198 469T148 439T125 372T119 255Q119 182 125 138T148 72T198 42T286 34Z" />
<glyph unicode="r" horiz-adv-x="347" d="M97 0V510H135L139 404H143Q155 450 180 475T241 509T318 518V471Q246 471 208 446T157 372T143 252V0H97Z" />
<glyph unicode="s" horiz-adv-x="500" d="M254 -8Q228 -8 196 -7T134 -3T79 3V44Q111 41 134 39T178 36T218 34T264 33Q320 33 347 43T383 75T392 135Q392 178 385 197T363 221T318 230L173 245Q129 250 105 262T72 302T63 372Q63 422 75 451T113 495T175 514T257
518Q281 518 308 517T361 513T409 505V465Q381 469 355 472T303 476T244 477Q204 477 173 472T125 447T108 378Q108 341 114 323T137 298T183 288L325 274Q370 270 393 259T427 220T437 135Q437 90 427 62T394 19T337 -2T254 -8Z" />
<glyph unicode="t" horiz-adv-x="336" d="M136 0V469H29V510H136V658H182V510H307V469H182V0H136Z" />
<glyph unicode="u" horiz-adv-x="603" d="M281 -8Q221 -8 185 3T129 38T104 99T97 190V510H143V201Q143 147 148 114T170 63T216 40T294 34Q356 34 390 50T439 94T457 162T460 246V510H506V0H467L464 81H459Q451 57 433 37T378 5T281 -8Z" />
<glyph unicode="v" horiz-adv-x="523" d="M236 0L33 510H82L259 58H265L442 510H490L287 0H236Z" />
<glyph unicode="w" horiz-adv-x="806" d="M211 0L37 510H86L234 67H240L380 510H428L568 67H575L721 510H769L595 0H546L406 431H399L261 0H211Z" />
<glyph unicode="x" horiz-adv-x="539" d="M38 0L240 259L45 510H101L267 297H272L439 510H494L299 260L502 0H445L272 222H267L93 0H38Z" />
<glyph unicode="y" horiz-adv-x="603" d="M284 -206Q255 -206 224 -205T163 -203T113 -199V-158Q142 -160 170 -161T226 -164T276 -165Q339 -165 376 -153T431 -116T454 -50T460 46V74H455Q449 55 431 36T378 5T281 -7Q221 -7 185 4T129 38T104 99T97 191V510H143V201Q143
147 148 114T170 63T216 40T294 34Q356 34 390 50T439 95T457 162T460 247V510H506V66Q506 -9 498 -61T466 -145T399 -191T284 -206Z" />
<glyph unicode="z" horiz-adv-x="499" d="M54 0V36L382 469H66V510H443V474L116 41H445V0H54Z" />
<glyph unicode="{" horiz-adv-x="306" d="M243 -150Q221 -138 202 -119T168 -76T145 -23T137 36V151Q137 182 128 211T95 260T29 280V313Q71 313 94 332T127 381T137 442V557Q137 586 145 614T167 668T201 712T243 743H286Q264 729 245 710T212 667T190 618T182
568V447Q182 389 162 351T94 299V294Q142 281 162 243T182 146V25Q182 1 190 -24T212 -73T245 -116T286 -150H243Z" />
<glyph unicode="|" horiz-adv-x="268" d="M112 -161V743H156V-161H112Z" />
<glyph unicode="}" horiz-adv-x="306" d="M20 -150Q42 -136 60 -117T93 -74T115 -25T124 25V146Q124 204 144 242T212 294V299Q164 312 144 350T124 447V568Q124 592 116 617T93 666T61 709T20 743H63Q86 731 104 712T138 668T161 615T169 557V442Q169 411 178
382T211 333T276 313V280Q234 280 211 261T179 212T169 151V36Q169 6 161 -22T138 -75T105 -119T63 -150H20Z" />
<glyph unicode="~" horiz-adv-x="497" d="M75 247Q75 283 79 305T98 336T140 346Q170 346 199 338T259 319Q283 312 308 305T356 297Q379 297 384 310T390 357H422Q422 321 418 299T399 268T357 258Q327 258 298 266T237 285Q214 293 189 300T141 307Q119 307
113 294T107 247H75Z" />
<glyph unicode="&#xa0;" horiz-adv-x="227" />
<glyph unicode="&#xa1;" horiz-adv-x="209" d="M79 -178V-42Q79 -18 79 13T79 81T81 159T84 244T86 331H123Q124 288 125 245T127 160T129 81T130 13T130 -42V-178H79ZM75 437V510H134V437H75Z" />
<glyph unicode="&#xa2;" horiz-adv-x="467" d="M278 68Q212 69 172 82T110 125T81 209T73 342Q73 412 79 460T100 539T138 588T196 612T276 619Q299 619 321 618T366 613T408 606V564Q385 570 350 573T281 576Q232 575 200 567T152 534T128 465T121 344Q121 268
127 222T151 152T201 120T284 110Q315 110 352 114T413 124V80Q398 77 377 75T330 70T278 68ZM258 -8V696H299V-8H258Z" />
<glyph unicode="&#xa3;" horiz-adv-x="583" d="M58 0V44H132V336H58V379H133V424Q133 506 144 559T184 642T260 684T380 696Q418 696 458 693T522 683V642Q503 645 479 647T430 650T380 652Q318 652 279 643T219 609T189 539T181 424V379H447V336H181V44H534V0H58Z" />
<glyph unicode="&#xa4;" horiz-adv-x="752" d="M100 -15L73 13L187 127Q168 157 163 210T158 343Q158 424 162 476T186 559L73 673L101 701L214 588Q238 606 277 612T376 619Q436 619 475 613T537 588L651 701L679 674L565 560Q584 529 588 477T593 343Q593 263
589 211T565 127L680 13L651 -16L536 99Q512 82 474 76T376 69Q316 69 277 75T215 100L100 -15ZM376 110Q440 110 475 119T525 152T543 223T546 343Q546 418 543 464T525 535T475 569T376 578Q312 578 277 569T226 535T208 464T205 343Q205 269 208 223T226 153T276
119T376 110Z" />
<glyph unicode="&#xa5;" horiz-adv-x="620" d="M285 0V256H73V295H266L38 688H91L307 305H314L530 688H582L353 295H546V256H333V0H285ZM73 410V449H546V410H73Z" />
<glyph unicode="&#xa6;" horiz-adv-x="268" d="M112 390V743H156V390H112ZM112 -161V192H156V-161H112Z" />
<glyph unicode="&#xa7;" horiz-adv-x="698" d="M326 -171Q297 -171 265 -170T205 -166T158 -160V-118Q180 -121 207 -123T262 -126T314 -127Q372 -127 412 -123T473 -97T494 -29Q494 11 488 32T467 65T421 84L176 151Q148 158 128 166T94 189T74 226T67 283Q67
310 70 338T85 390T117 431T176 449Q161 470 159 497T156 552Q156 596 170 624T212 668T280 690T372 696Q403 696 434 695T493 691T540 685V643Q507 648 464 650T384 652Q327 652 287 648T225 623T204 554Q204 514 211 492T238 458T299 435L527 373Q550 367 569
358T602 336T623 299T631 242Q631 216 628 187T614 134T581 93T522 76Q537 55 539 28T542 -27Q542 -71 528 -99T486 -143T419 -165T326 -171ZM114 297Q114 263 119 244T140 213T184 195L439 126Q465 119 480 115T506 111Q545 111 564 138T584 227Q584 261 579 281T556
312T503 333L262 397Q234 404 219 408T192 413Q154 413 134 386T114 297Z" />
<glyph unicode="&#xa8;" horiz-adv-x="260" d="M0 645V710H51V645H0ZM209 645V710H260V645H209Z" />
<glyph unicode="&#xa9;" horiz-adv-x="726" d="M363 -8Q282 -8 231 -1T151 26T108 86T92 188T89 344Q89 437 92 500T108 602T150 661T231 689T363 696Q444 696 495 689T575 662T618 602T634 500T637 344Q637 251 634 188T618 86T576 27T495 -1T363 -8ZM386 154Q339
154 310 160T265 186T245 243T239 344Q239 406 244 444T265 501T309 527T386 534Q411 534 435 532T472 527V494Q456 496 434 497T392 499Q352 499 329 495T295 476T280 429T276 344Q276 290 279 259T294 212T329 193T392 188Q412 188 435 189T474 193V159Q458 157
433 156T386 154ZM363 21Q434 21 479 26T550 48T587 100T602 195T605 344Q605 434 602 493T588 587T550 640T479 661T363 666Q292 666 247 662T176 640T139 588T124 493T121 344Q121 254 124 195T138 101T176 48T247 26T363 21Z" />
<glyph unicode="&#xaa;" horiz-adv-x="403" d="M174 316Q130 316 101 324T58 355T44 423Q44 464 53 487T86 520T155 530Q167 530 192 530T248 529T304 527V554Q304 603 296 625T262 653T185 659Q167 659 145 658T103 655T68 650V687Q91 692 125 694T198 696Q244
696 273 690T318 668T339 626T344 557V320H310L305 363H301Q288 341 267 331T221 319T174 316ZM179 350Q202 350 225 352T266 364T291 391Q299 409 301 428T304 472V496H165Q115 496 99 483T83 424Q83 379 102 365T179 350Z" />
<glyph unicode="&#xab;" horiz-adv-x="459" d="M189 99L57 304L189 510H226L108 304L226 99H189ZM344 99L212 304L344 510H382L264 304L382 99H344Z" />
<glyph unicode="&#xac;" horiz-adv-x="539" d="M427 53V234H70V276H469V53H427Z" />
<glyph unicode="&#xad;" horiz-adv-x="357" d="M64 263V308H293V263H64Z" />
<glyph unicode="&#xae;" horiz-adv-x="726" d="M363 -8Q282 -8 231 -1T151 26T108 86T92 188T89 344Q89 437 92 500T108 602T150 661T231 689T363 696Q444 696 495 689T575 662T618 602T634 500T637 344Q637 251 634 188T618 86T576 27T495 -1T363 -8ZM363 21Q434
21 479 26T550 48T587 100T602 195T605 344Q605 434 602 493T588 587T550 640T479 661T363 666Q292 666 247 662T176 640T139 588T124 493T121 344Q121 254 124 195T138 101T176 48T247 26T363 21ZM234 157V529H400Q449 529 470 513T496 471T501 419Q501 387 491
358T445 315L509 157H468L409 309H271V157H234ZM271 343H388Q424 343 440 353T461 380T465 419Q465 442 461 459T443 485T396 495H271V343Z" />
<glyph unicode="&#xaf;" horiz-adv-x="271" d="M0 645V682H271V645H0Z" />
<glyph unicode="&#xb0;" horiz-adv-x="386" d="M193 397Q149 397 124 403T87 426T72 471T68 546Q68 591 71 620T87 666T124 689T193 696Q237 696 262 689T299 666T314 621T318 546Q318 501 315 472T299 426T262 404T193 397ZM193 432Q236 432 253 440T274 473T278
546Q278 594 275 619T254 652T193 661Q151 661 133 653T112 619T108 546Q108 498 111 474T133 441T193 432Z" />
<glyph unicode="&#xb1;" horiz-adv-x="540" d="M249 184V364H70V404H249V584H289V404H470V364H289V184H249ZM70 0V40H470V0H70Z" />
<glyph unicode="&#xb2;" horiz-adv-x="358" d="M44 420V463Q44 506 47 529T64 566T109 592L222 636Q244 645 254 652T268 670T271 700Q271 728 263 741T232 759T169 763Q148 763 115 762T52 757V792Q76 796 112 798T182 801Q219 801 248 796T296 771T314 705Q314
675 307 656T285 625T242 602L114 552Q102 547 96 542T88 524T86 486V458H314V420H44Z" />
<glyph unicode="&#xb3;" horiz-adv-x="352" d="M154 416Q129 416 96 418T36 424V459Q65 457 97 455T149 453Q204 453 233 464T263 521Q263 561 244 576T182 592H103V629H182Q202 629 219 634T248 653T259 696Q259 726 247 740T210 759T144 763Q122 763 93 762T38
757V792Q63 796 96 798T155 801Q210 801 242 792T287 761T301 702Q301 661 283 641T233 613V611Q267 606 286 587T306 520Q306 486 294 463T250 428T154 416Z" />
<glyph unicode="&#xb4;" horiz-adv-x="162" d="M0 603V608L106 742H162V737L35 603H0Z" />
<glyph unicode="&#xb5;" horiz-adv-x="603" d="M97 -190V510H143V201Q143 147 148 114T170 63T216 40T294 34Q356 34 390 50T439 94T457 162T460 246V510H506V0H467L464 81H459Q451 57 433 37T378 5T281 -8Q239 -8 208 -1T157 21T123 61L161 36H143V-190H97Z" />
<glyph unicode="&#xb6;" d="M317 -144V222Q247 222 202 227T131 245T92 284T77 351T73 454Q73 515 76 556T92 624T130 664T202 683T317 688H359V-144H317ZM425 -144V688H467V-144H425Z" />
<glyph unicode="&#xb7;" horiz-adv-x="187" d="M64 263V336H123V263H64Z" />
<glyph unicode="&#xb8;" horiz-adv-x="95" d="M0 -190V-185L62 18H95V13L50 -190H0Z" />
<glyph unicode="&#xb9;" horiz-adv-x="222" d="M111 420V748L25 706V745L121 796H154V420H111Z" />
<glyph unicode="&#xba;" horiz-adv-x="416" d="M208 315Q152 315 120 323T73 351T53 408T49 504Q49 562 53 600T72 658T120 687T208 696Q264 696 296 688T343 659T362 600T366 504Q366 445 362 408T343 351T296 323T208 315ZM208 350Q253 350 277 355T311 377T323
424T326 504Q326 552 324 583T311 630T277 653T208 659Q164 659 140 653T105 631T93 583T90 504Q90 455 92 425T105 378T139 356T208 350Z" />
<glyph unicode="&#xbb;" horiz-adv-x="459" d="M77 99L195 304L77 510H115L247 304L115 99H77ZM233 99L351 304L233 510H271L403 304L271 99H233Z" />
<glyph unicode="&#xbc;" horiz-adv-x="658" d="M111 308V636L25 594V633L121 684H154V308H111ZM41 0L490 688H537L88 0H41ZM530 0V89H314V121L466 376H513L361 125H530L539 264H572V125H632V89H572V0H530Z" />
<glyph unicode="&#xbd;" horiz-adv-x="714" d="M111 308V636L25 594V633L121 684H154V308H111ZM41 0L490 688H537L88 0H41ZM400 0V43Q400 86 403 109T420 146T465 172L578 216Q600 225 610 232T624 250T627 280Q627 308 619 321T588 339T525 343Q504 343 471 342T408
337V372Q432 376 468 378T538 381Q575 381 604 376T652 351T670 285Q670 255 663 236T641 205T598 182L470 132Q458 127 452 122T444 104T442 66V38H670V0H400Z" />
<glyph unicode="&#xbe;" horiz-adv-x="788" d="M154 304Q129 304 96 306T36 312V347Q65 345 97 343T149 341Q204 341 233 352T263 409Q263 449 244 464T182 480H103V517H182Q202 517 219 522T248 542T259 584Q259 614 247 628T210 647T144 651Q122 651 93 650T38
645V680Q63 684 96 686T155 689Q210 689 242 680T287 649T301 590Q301 549 283 529T233 501V499Q267 494 286 475T306 408Q306 374 294 351T250 316T154 304ZM171 0L620 688H667L218 0H171ZM660 0V89H444V121L596 376H643L491 125H660L669 264H702V125H762V89H702V0H660Z"
/>
<glyph unicode="&#xbf;" horiz-adv-x="429" d="M269 -186Q216 -186 179 -179T117 -154T80 -104T68 -23Q68 10 70 37T81 86T108 125T159 153L212 172Q237 181 251 187T271 201T279 220T281 252V331H327V246Q327 209 320 190T295 160T247 139L220 130Q175 115 153
100T124 59T116 -14Q116 -71 131 -98T183 -134T280 -142Q295 -142 314 -141T356 -139T402 -135T449 -130V-172Q421 -176 389 -179T325 -184T269 -186ZM274 437V510H333V437H274Z" />
<glyph unicode="&#xc0;" horiz-adv-x="683" d="M37 0L315 688H368L646 0H595L509 214H173L87 0H37ZM190 258H492L344 628H339L190 258ZM361 782L234 915V920H290L396 787V782H361Z" />
<glyph unicode="&#xc1;" horiz-adv-x="683" d="M37 0L315 688H368L646 0H595L509 214H173L87 0H37ZM190 258H492L344 628H339L190 258ZM303 781V786L409 920H465V915L338 781H303Z" />
<glyph unicode="&#xc2;" horiz-adv-x="683" d="M37 0L315 688H368L646 0H595L509 214H173L87 0H37ZM190 258H492L344 628H339L190 258ZM208 782V787L314 921H369L475 787V782H441L341 887L242 782H208Z" />
<glyph unicode="&#xc3;" horiz-adv-x="683" d="M37 0L315 688H368L646 0H595L509 214H173L87 0H37ZM190 258H492L344 628H339L190 258ZM178 794Q178 830 182 852T201 884T243 894Q271 894 298 886T353 867Q374 859 395 852T440 845Q462 845 468 858T474 905H505Q505
869 501 847T482 815T441 805Q411 805 386 814T331 833Q309 840 288 847T244 855Q222 855 216 842T210 794H178Z" />
<glyph unicode="&#xc4;" horiz-adv-x="683" d="M37 0L315 688H368L646 0H595L509 214H173L87 0H37ZM190 258H492L344 628H339L190 258ZM211 823V888H262V823H211ZM420 823V888H471V823H420Z" />
<glyph unicode="&#xc5;" horiz-adv-x="683" d="M37 0L315 688H368L646 0H595L509 214H173L87 0H37ZM190 258H492L344 628H339L190 258ZM344 660Q303 660 280 665T246 682T232 711T229 756Q229 782 232 800T246 830T280 847T344 853Q386 853 409 848T444 831T458
801T461 756Q461 729 458 711T444 682T410 666T344 660ZM344 692Q384 692 400 697T420 717T424 756Q424 782 421 796T401 816T344 822Q306 822 290 816T270 796T266 756Q266 731 269 717T289 698T344 692Z" />
<glyph unicode="&#xc6;" horiz-adv-x="949" d="M-2 0L348 688H892V644H413L497 370H845V326H509L594 44H892V0H556L492 214H156L48 0H-2ZM178 258H480L370 628H365L178 258Z" />
<glyph unicode="&#xc7;" horiz-adv-x="577" d="M356 -8Q287 -8 239 -1T162 26T116 84T93 186T87 344Q87 437 93 500T115 601T161 660T239 688T356 696Q382 696 410 695T464 690T510 683V642Q490 645 465 647T415 651T369 652Q306 652 263 647T195 626T156 576T139
486T135 344Q135 259 139 203T156 113T194 63T263 41T369 36Q404 36 444 39T514 46V3Q494 0 467 -2T410 -6T356 -8ZM256 -190V-185L318 18H351V13L306 -190H256Z" />
<glyph unicode="&#xc8;" horiz-adv-x="599" d="M111 0V688H542V644H159V370H495V326H159V44H542V0H111ZM351 782L224 915V920H280L386 787V782H351Z" />
<glyph unicode="&#xc9;" horiz-adv-x="599" d="M111 0V688H542V644H159V370H495V326H159V44H542V0H111ZM293 781V786L399 920H455V915L328 781H293Z" />
<glyph unicode="&#xca;" horiz-adv-x="599" d="M111 0V688H542V644H159V370H495V326H159V44H542V0H111ZM199 782V787L305 921H360L466 787V782H432L332 887L233 782H199Z" />
<glyph unicode="&#xcb;" horiz-adv-x="599" d="M111 0V688H542V644H159V370H495V326H159V44H542V0H111ZM202 823V888H253V823H202ZM411 823V888H462V823H411Z" />
<glyph unicode="&#xcc;" horiz-adv-x="271" d="M111 0V688H159V0H111ZM154 782L27 915V920H83L189 787V782H154Z" />
<glyph unicode="&#xcd;" horiz-adv-x="271" d="M111 0V688H159V0H111ZM96 781V786L202 920H258V915L131 781H96Z" />
<glyph unicode="&#xce;" horiz-adv-x="271" d="M111 0V688H159V0H111ZM2 782V787L108 921H163L269 787V782H235L135 887L36 782H2Z" />
<glyph unicode="&#xcf;" horiz-adv-x="271" d="M111 0V688H159V0H111ZM5 823V888H56V823H5ZM214 823V888H265V823H214Z" />
<glyph unicode="&#xd0;" horiz-adv-x="692" d="M111 0V327H42V371H111V688H320Q401 688 453 681T536 654T582 596T601 496T605 344Q605 253 601 192T582 93T537 34T454 7T320 0H111ZM159 44H301Q374 44 421 47T496 64T536 110T553 199T557 344Q557 432 553 489T536
578T495 624T420 641T301 644H159V371H284V327H159V44Z" />
<glyph unicode="&#xd1;" horiz-adv-x="736" d="M111 0V688H159L575 89H579V688H625V0H579L162 602H158V0H111ZM214 794Q214 830 218 852T237 884T279 894Q307 894 334 886T389 867Q410 859 431 852T476 845Q498 845 504 858T510 905H541Q541 869 537 847T518 815T477
805Q447 805 422 814T367 833Q345 840 324 847T280 855Q258 855 252 842T246 794H214Z" />
<glyph unicode="&#xd2;" horiz-adv-x="724" d="M362 -8Q284 -8 233 -1T153 27T109 87T91 188T87 344Q87 437 91 499T109 601T152 660T233 688T362 696Q440 696 491 689T571 661T615 601T633 500T637 344Q637 251 633 189T615 87T572 28T491 0T362 -8ZM362 36Q424
36 465 39T532 57T569 105T585 195T589 344Q589 435 586 492T570 583T532 630T466 648T362 652Q299 652 258 649T192 631T155 583T139 493T135 344Q135 253 138 196T154 105T192 58T258 40T362 36ZM381 782L254 915V920H310L416 787V782H381Z" />
<glyph unicode="&#xd3;" horiz-adv-x="724" d="M362 -8Q284 -8 233 -1T153 27T109 87T91 188T87 344Q87 437 91 499T109 601T152 660T233 688T362 696Q440 696 491 689T571 661T615 601T633 500T637 344Q637 251 633 189T615 87T572 28T491 0T362 -8ZM362 36Q424
36 465 39T532 57T569 105T585 195T589 344Q589 435 586 492T570 583T532 630T466 648T362 652Q299 652 258 649T192 631T155 583T139 493T135 344Q135 253 138 196T154 105T192 58T258 40T362 36ZM323 781V786L429 920H485V915L358 781H323Z" />
<glyph unicode="&#xd4;" horiz-adv-x="724" d="M362 -8Q284 -8 233 -1T153 27T109 87T91 188T87 344Q87 437 91 499T109 601T152 660T233 688T362 696Q440 696 491 689T571 661T615 601T633 500T637 344Q637 251 633 189T615 87T572 28T491 0T362 -8ZM362 36Q424
36 465 39T532 57T569 105T585 195T589 344Q589 435 586 492T570 583T532 630T466 648T362 652Q299 652 258 649T192 631T155 583T139 493T135 344Q135 253 138 196T154 105T192 58T258 40T362 36ZM228 782V787L334 921H389L495 787V782H461L361 887L262 782H228Z"
/>
<glyph unicode="&#xd5;" horiz-adv-x="724" d="M362 -8Q284 -8 233 -1T153 27T109 87T91 188T87 344Q87 437 91 499T109 601T152 660T233 688T362 696Q440 696 491 689T571 661T615 601T633 500T637 344Q637 251 633 189T615 87T572 28T491 0T362 -8ZM362 36Q424
36 465 39T532 57T569 105T585 195T589 344Q589 435 586 492T570 583T532 630T466 648T362 652Q299 652 258 649T192 631T155 583T139 493T135 344Q135 253 138 196T154 105T192 58T258 40T362 36ZM198 794Q198 830 202 852T221 884T263 894Q291 894 318 886T373
867Q394 859 415 852T460 845Q482 845 488 858T494 905H525Q525 869 521 847T502 815T461 805Q431 805 406 814T351 833Q329 840 308 847T264 855Q242 855 236 842T230 794H198Z" />
<glyph unicode="&#xd6;" horiz-adv-x="724" d="M362 -8Q284 -8 233 -1T153 27T109 87T91 188T87 344Q87 437 91 499T109 601T152 660T233 688T362 696Q440 696 491 689T571 661T615 601T633 500T637 344Q637 251 633 189T615 87T572 28T491 0T362 -8ZM362 36Q424
36 465 39T532 57T569 105T585 195T589 344Q589 435 586 492T570 583T532 630T466 648T362 652Q299 652 258 649T192 631T155 583T139 493T135 344Q135 253 138 196T154 105T192 58T258 40T362 36ZM231 823V888H282V823H231ZM440 823V888H491V823H440Z" />
<glyph unicode="&#xd7;" horiz-adv-x="471" d="M98 87L70 116L207 252L70 389L98 418L236 281L373 418L401 390L264 253L401 115L372 87L235 224L98 87Z" />
<glyph unicode="&#xd8;" horiz-adv-x="724" d="M87 -55L590 743H637L133 -55H87ZM362 -8Q284 -8 233 -1T153 27T109 87T91 188T87 344Q87 437 91 499T109 601T152 660T233 688T362 696Q440 696 491 689T571 661T615 601T633 500T637 344Q637 251 633 189T615 87T572
28T491 0T362 -8ZM362 36Q424 36 465 39T532 57T569 105T585 195T589 344Q589 435 586 492T570 583T532 630T466 648T362 652Q299 652 258 649T192 631T155 583T139 493T135 344Q135 253 138 196T154 105T192 58T258 40T362 36Z" />
<glyph unicode="&#xd9;" horiz-adv-x="715" d="M358 -8Q288 -8 241 0T167 29T125 84T106 171T102 296V688H150V265Q150 195 155 151T180 81T242 46T358 36Q432 36 473 45T535 80T560 150T565 265V688H613V296Q613 223 609 171T591 84T550 29T475 1T358 -8ZM377
782L250 915V920H306L412 787V782H377Z" />
<glyph unicode="&#xda;" horiz-adv-x="715" d="M358 -8Q288 -8 241 0T167 29T125 84T106 171T102 296V688H150V265Q150 195 155 151T180 81T242 46T358 36Q432 36 473 45T535 80T560 150T565 265V688H613V296Q613 223 609 171T591 84T550 29T475 1T358 -8ZM319
781V786L425 920H481V915L354 781H319Z" />
<glyph unicode="&#xdb;" horiz-adv-x="715" d="M358 -8Q288 -8 241 0T167 29T125 84T106 171T102 296V688H150V265Q150 195 155 151T180 81T242 46T358 36Q432 36 473 45T535 80T560 150T565 265V688H613V296Q613 223 609 171T591 84T550 29T475 1T358 -8ZM224
782V787L330 921H385L491 787V782H457L357 887L258 782H224Z" />
<glyph unicode="&#xdc;" horiz-adv-x="715" d="M358 -8Q288 -8 241 0T167 29T125 84T106 171T102 296V688H150V265Q150 195 155 151T180 81T242 46T358 36Q432 36 473 45T535 80T560 150T565 265V688H613V296Q613 223 609 171T591 84T550 29T475 1T358 -8ZM227
823V888H278V823H227ZM436 823V888H487V823H436Z" />
<glyph unicode="&#xdd;" horiz-adv-x="601" d="M276 0V277L18 688H72L298 326H305L531 688H583L324 277V0H276ZM262 781V786L368 920H424V915L297 781H262Z" />
<glyph unicode="&#xde;" horiz-adv-x="654" d="M111 0V688H159V560H403Q470 560 508 543T564 497T587 431T592 350Q592 309 587 271T564 204T507 158T402 141H159V0H111ZM159 184H394Q447 184 477 195T521 227T540 280T544 350Q544 390 541 420T523 472T479 505T394
516H159V184Z" />
<glyph unicode="&#xdf;" horiz-adv-x="612" d="M97 0V530Q97 605 117 654T187 726T322 750Q384 750 424 739T487 707T520 652T530 576Q530 515 502 483T414 442V438Q476 428 507 385T539 243Q539 174 532 128T504 54T444 13T340 0H252V41H320Q377 41 411 46T463
71T487 129T493 235Q493 307 478 346T428 401T327 417H289V458H327Q384 458 418 470T468 508T484 579Q484 627 470 655T419 696T314 709Q256 709 218 695T161 642T142 524V0H97Z" />
<glyph unicode="&#xe0;" horiz-adv-x="573" d="M243 -8Q181 -8 141 3T82 46T63 139Q63 195 76 227T122 272T215 285Q226 285 250 285T306 284T370 283T430 281V323Q430 377 424 407T399 453T347 473T259 477Q236 477 206 475T146 471T98 465V506Q130 511 176 514T276
518Q326 518 361 513T419 495T454 461T471 406T476 328V0H437L434 80H430Q415 41 384 22T316 -2T243 -8ZM249 32Q283 32 314 35T370 51T407 89Q420 117 425 145T430 210V247H227Q180 247 154 240T118 209T108 140Q108 96 119 73T161 41T249 32ZM306 603L179 736V741H235L341
608V603H306Z" />
<glyph unicode="&#xe1;" horiz-adv-x="573" d="M243 -8Q181 -8 141 3T82 46T63 139Q63 195 76 227T122 272T215 285Q226 285 250 285T306 284T370 283T430 281V323Q430 377 424 407T399 453T347 473T259 477Q236 477 206 475T146 471T98 465V506Q130 511 176 514T276
518Q326 518 361 513T419 495T454 461T471 406T476 328V0H437L434 80H430Q415 41 384 22T316 -2T243 -8ZM249 32Q283 32 314 35T370 51T407 89Q420 117 425 145T430 210V247H227Q180 247 154 240T118 209T108 140Q108 96 119 73T161 41T249 32ZM230 603V608L336
742H392V737L265 603H230Z" />
<glyph unicode="&#xe2;" horiz-adv-x="573" d="M243 -8Q181 -8 141 3T82 46T63 139Q63 195 76 227T122 272T215 285Q226 285 250 285T306 284T370 283T430 281V323Q430 377 424 407T399 453T347 473T259 477Q236 477 206 475T146 471T98 465V506Q130 511 176 514T276
518Q326 518 361 513T419 495T454 461T471 406T476 328V0H437L434 80H430Q415 41 384 22T316 -2T243 -8ZM249 32Q283 32 314 35T370 51T407 89Q420 117 425 145T430 210V247H227Q180 247 154 240T118 209T108 140Q108 96 119 73T161 41T249 32ZM156 603V609L262
742H317L423 609V603H389L289 709L190 603H156Z" />
<glyph unicode="&#xe3;" horiz-adv-x="573" d="M243 -8Q181 -8 141 3T82 46T63 139Q63 195 76 227T122 272T215 285Q226 285 250 285T306 284T370 283T430 281V323Q430 377 424 407T399 453T347 473T259 477Q236 477 206 475T146 471T98 465V506Q130 511 176 514T276
518Q326 518 361 513T419 495T454 461T471 406T476 328V0H437L434 80H430Q415 41 384 22T316 -2T243 -8ZM249 32Q283 32 314 35T370 51T407 89Q420 117 425 145T430 210V247H227Q180 247 154 240T118 209T108 140Q108 96 119 73T161 41T249 32ZM126 616Q126 652
130 674T149 706T191 716Q219 716 246 708T301 689Q322 681 343 674T388 667Q410 667 416 680T422 727H453Q453 691 449 669T430 637T389 627Q359 627 334 636T279 655Q257 662 236 669T192 677Q170 677 164 664T158 616H126Z" />
<glyph unicode="&#xe4;" horiz-adv-x="573" d="M243 -8Q181 -8 141 3T82 46T63 139Q63 195 76 227T122 272T215 285Q226 285 250 285T306 284T370 283T430 281V323Q430 377 424 407T399 453T347 473T259 477Q236 477 206 475T146 471T98 465V506Q130 511 176 514T276
518Q326 518 361 513T419 495T454 461T471 406T476 328V0H437L434 80H430Q415 41 384 22T316 -2T243 -8ZM249 32Q283 32 314 35T370 51T407 89Q420 117 425 145T430 210V247H227Q180 247 154 240T118 209T108 140Q108 96 119 73T161 41T249 32ZM159 645V710H210V645H159ZM368
645V710H419V645H368Z" />
<glyph unicode="&#xe5;" horiz-adv-x="573" d="M243 -8Q181 -8 141 3T82 46T63 139Q63 195 76 227T122 272T215 285Q226 285 250 285T306 284T370 283T430 281V323Q430 377 424 407T399 453T347 473T259 477Q236 477 206 475T146 471T98 465V506Q130 511 176 514T276
518Q326 518 361 513T419 495T454 461T471 406T476 328V0H437L434 80H430Q415 41 384 22T316 -2T243 -8ZM249 32Q283 32 314 35T370 51T407 89Q420 117 425 145T430 210V247H227Q180 247 154 240T118 209T108 140Q108 96 119 73T161 41T249 32ZM288 589Q247 589
224 594T190 611T176 640T173 685Q173 711 176 729T190 759T224 776T288 782Q330 782 353 777T388 760T402 730T405 685Q405 658 402 640T388 611T354 595T288 589ZM288 621Q328 621 344 626T364 646T368 685Q368 711 365 725T345 745T288 751Q250 751 234 745T214
725T210 685Q210 660 213 646T233 627T288 621Z" />
<glyph unicode="&#xe6;" horiz-adv-x="919" d="M245 -8Q199 -8 165 -2T108 20T74 64T63 139Q63 193 76 224T122 268T215 282Q249 282 285 282T357 282T430 281V323Q430 377 424 407T399 453T347 473T259 477Q236 477 205 475T146 471T98 465V506Q129 511 175 514T276
518Q356 518 398 504T457 450Q478 487 522 502T651 518Q706 518 742 510T799 484T830 436T843 362T846 259V243H476Q476 180 482 139T505 74T559 42T657 33Q684 33 714 34T774 39T826 46V5Q807 1 777 -2T714 -6T649 -8Q587 -8 548 0T485 30T449 88Q431 44 398 24T326
-2T245 -8ZM249 32Q283 32 314 35T371 52T408 93Q420 119 425 146T430 210V243H227Q180 243 154 236T118 208T108 140Q108 96 119 73T161 41T249 32ZM801 259Q802 331 797 374T776 439T729 469T648 477Q590 477 556 470T504 443T482 384T476 281H822L801 259Z"
/>
<glyph unicode="&#xe7;" horiz-adv-x="458" d="M275 -8Q219 -8 183 1T124 30T91 80T77 154T73 254Q73 317 77 361T95 436T130 484T187 510T270 518Q304 518 341 515T402 506V466Q377 470 343 473T281 477Q228 477 196 468T147 434T125 367T119 256Q119 186 124
142T147 74T197 42T283 33Q314 33 349 36T407 45V4Q384 -1 347 -4T275 -8ZM201 -190V-185L263 18H296V13L251 -190H201Z" />
<glyph unicode="&#xe8;" horiz-adv-x="561" d="M292 -8Q234 -8 195 -1T131 24T94 72T77 147T73 254Q73 328 78 378T103 459T169 504T293 518Q349 518 385 510T442 484T473 435T486 360T489 256V239H119Q119 177 124 137T147 73T201 42T300 33Q326 33 356 34T416
39T469 46V5Q449 1 420 -2T357 -6T292 -8ZM443 258V296Q443 357 436 393T412 447T365 471T290 477Q232 477 198 470T147 442T124 382T119 278H463L443 258ZM302 603L175 736V741H231L337 608V603H302Z" />
<glyph unicode="&#xe9;" horiz-adv-x="561" d="M292 -8Q234 -8 195 -1T131 24T94 72T77 147T73 254Q73 328 78 378T103 459T169 504T293 518Q349 518 385 510T442 484T473 435T486 360T489 256V239H119Q119 177 124 137T147 73T201 42T300 33Q326 33 356 34T416
39T469 46V5Q449 1 420 -2T357 -6T292 -8ZM443 258V296Q443 357 436 393T412 447T365 471T290 477Q232 477 198 470T147 442T124 382T119 278H463L443 258ZM226 603V608L332 742H388V737L261 603H226Z" />
<glyph unicode="&#xea;" horiz-adv-x="561" d="M292 -8Q234 -8 195 -1T131 24T94 72T77 147T73 254Q73 328 78 378T103 459T169 504T293 518Q349 518 385 510T442 484T473 435T486 360T489 256V239H119Q119 177 124 137T147 73T201 42T300 33Q326 33 356 34T416
39T469 46V5Q449 1 420 -2T357 -6T292 -8ZM443 258V296Q443 357 436 393T412 447T365 471T290 477Q232 477 198 470T147 442T124 382T119 278H463L443 258ZM152 603V609L258 742H313L419 609V603H385L285 709L186 603H152Z" />
<glyph unicode="&#xeb;" horiz-adv-x="561" d="M292 -8Q234 -8 195 -1T131 24T94 72T77 147T73 254Q73 328 78 378T103 459T169 504T293 518Q349 518 385 510T442 484T473 435T486 360T489 256V239H119Q119 177 124 137T147 73T201 42T300 33Q326 33 356 34T416
39T469 46V5Q449 1 420 -2T357 -6T292 -8ZM443 258V296Q443 357 436 393T412 447T365 471T290 477Q232 477 198 470T147 442T124 382T119 278H463L443 258ZM155 645V710H206V645H155ZM364 645V710H415V645H364Z" />
<glyph unicode="&#xec;" horiz-adv-x="240" d="M97 0V510H143V0H97ZM136 603L9 736V741H65L171 608V603H136Z" />
<glyph unicode="&#xed;" horiz-adv-x="240" d="M97 0V510H143V0H97ZM60 603V608L166 742H222V737L95 603H60Z" />
<glyph unicode="&#xee;" horiz-adv-x="240" d="M97 0V510H143V0H97ZM243 603V609L349 742H404L510 609V603H476L376 709L277 603H243Z" />
<glyph unicode="&#xef;" horiz-adv-x="240" d="M97 0V510H143V0H97ZM246 645V710H297V645H246ZM455 645V710H506V645H455Z" />
<glyph unicode="&#xf0;" horiz-adv-x="580" d="M290 -8Q228 -8 188 -1T125 22T90 69T76 144T73 254Q73 333 78 385T104 466T167 506T285 518Q334 518 369 510T429 484L435 486Q420 533 401 570T359 637L238 616V654L333 670Q309 698 289 715T259 739V743H313Q321
738 339 722T381 678L482 696V659L405 645Q434 603 460 543T496 416Q501 389 503 363T506 315T507 277Q507 206 504 157T491 75T458 25T394 -1T290 -8ZM290 33Q354 33 389 41T439 73T457 139T461 254Q461 311 458 353T439 422T389 463T290 477Q226 477 191 469T140
437T122 369T119 254Q119 183 122 140T140 73T190 42T290 33Z" />
<glyph unicode="&#xf1;" horiz-adv-x="603" d="M97 0V510H136L139 429H143Q152 453 170 473T225 505T322 518Q382 518 418 507T474 472T499 411T506 320V0H460V309Q460 364 455 397T433 447T387 470T309 476Q247 476 213 460T164 416T146 348T143 264V0H97ZM137
616Q137 652 141 674T160 706T202 716Q230 716 257 708T312 689Q333 681 354 674T399 667Q421 667 427 680T433 727H464Q464 691 460 669T441 637T400 627Q370 627 345 636T290 655Q268 662 247 669T203 677Q181 677 175 664T169 616H137Z" />
<glyph unicode="&#xf2;" horiz-adv-x="579" d="M290 -8Q228 -8 188 -2T125 22T90 69T76 144T73 254Q73 319 76 364T90 440T124 487T188 511T290 518Q351 518 391 511T454 487T489 440T504 365T507 254Q507 190 504 145T490 69T455 22T391 -1T290 -8ZM290 33Q354
33 389 41T439 73T457 140T460 254Q460 325 457 369T439 436T389 468T290 477Q226 477 191 469T140 437T122 369T119 254Q119 184 122 140T140 73T190 42T290 33ZM305 603L178 736V741H234L340 608V603H305Z" />
<glyph unicode="&#xf3;" horiz-adv-x="579" d="M290 -8Q228 -8 188 -2T125 22T90 69T76 144T73 254Q73 319 76 364T90 440T124 487T188 511T290 518Q351 518 391 511T454 487T489 440T504 365T507 254Q507 190 504 145T490 69T455 22T391 -1T290 -8ZM290 33Q354
33 389 41T439 73T457 140T460 254Q460 325 457 369T439 436T389 468T290 477Q226 477 191 469T140 437T122 369T119 254Q119 184 122 140T140 73T190 42T290 33ZM230 603V608L336 742H392V737L265 603H230Z" />
<glyph unicode="&#xf4;" horiz-adv-x="579" d="M290 -8Q228 -8 188 -2T125 22T90 69T76 144T73 254Q73 319 76 364T90 440T124 487T188 511T290 518Q351 518 391 511T454 487T489 440T504 365T507 254Q507 190 504 145T490 69T455 22T391 -1T290 -8ZM290 33Q354
33 389 41T439 73T457 140T460 254Q460 325 457 369T439 436T389 468T290 477Q226 477 191 469T140 437T122 369T119 254Q119 184 122 140T140 73T190 42T290 33ZM156 603V609L262 742H317L423 609V603H389L289 709L190 603H156Z" />
<glyph unicode="&#xf5;" horiz-adv-x="579" d="M290 -8Q228 -8 188 -2T125 22T90 69T76 144T73 254Q73 319 76 364T90 440T124 487T188 511T290 518Q351 518 391 511T454 487T489 440T504 365T507 254Q507 190 504 145T490 69T455 22T391 -1T290 -8ZM290 33Q354
33 389 41T439 73T457 140T460 254Q460 325 457 369T439 436T389 468T290 477Q226 477 191 469T140 437T122 369T119 254Q119 184 122 140T140 73T190 42T290 33ZM125 616Q125 652 129 674T148 706T190 716Q218 716 245 708T300 689Q321 681 342 674T387 667Q409
667 415 680T421 727H452Q452 691 448 669T429 637T388 627Q358 627 333 636T278 655Q256 662 235 669T191 677Q169 677 163 664T157 616H125Z" />
<glyph unicode="&#xf6;" horiz-adv-x="579" d="M290 -8Q228 -8 188 -2T125 22T90 69T76 144T73 254Q73 319 76 364T90 440T124 487T188 511T290 518Q351 518 391 511T454 487T489 440T504 365T507 254Q507 190 504 145T490 69T455 22T391 -1T290 -8ZM290 33Q354
33 389 41T439 73T457 140T460 254Q460 325 457 369T439 436T389 468T290 477Q226 477 191 469T140 437T122 369T119 254Q119 184 122 140T140 73T190 42T290 33ZM159 645V710H210V645H159ZM368 645V710H419V645H368Z" />
<glyph unicode="&#xf7;" horiz-adv-x="540" d="M70 233V273H470V233H70ZM245 31V96H295V31H245ZM245 410V475H295V410H245Z" />
<glyph unicode="&#xf8;" horiz-adv-x="579" d="M73 -55L461 565H506L117 -55H73ZM290 -8Q228 -8 188 -2T125 22T90 69T76 144T73 254Q73 319 76 364T90 440T124 487T188 511T290 518Q351 518 391 511T454 487T489 440T504 365T507 254Q507 190 504 145T490 69T455
22T391 -1T290 -8ZM290 33Q354 33 389 41T439 73T457 140T460 254Q460 325 457 369T439 436T389 468T290 477Q226 477 191 469T140 437T122 369T119 254Q119 184 122 140T140 73T190 42T290 33Z" />
<glyph unicode="&#xf9;" horiz-adv-x="603" d="M281 -8Q221 -8 185 3T129 38T104 99T97 190V510H143V201Q143 147 148 114T170 63T216 40T294 34Q356 34 390 50T439 94T457 162T460 246V510H506V0H467L464 81H459Q451 57 433 37T378 5T281 -8ZM317 603L190 736V741H246L352
608V603H317Z" />
<glyph unicode="&#xfa;" horiz-adv-x="603" d="M281 -8Q221 -8 185 3T129 38T104 99T97 190V510H143V201Q143 147 148 114T170 63T216 40T294 34Q356 34 390 50T439 94T457 162T460 246V510H506V0H467L464 81H459Q451 57 433 37T378 5T281 -8ZM241 603V608L347
742H403V737L276 603H241Z" />
<glyph unicode="&#xfb;" horiz-adv-x="603" d="M281 -8Q221 -8 185 3T129 38T104 99T97 190V510H143V201Q143 147 148 114T170 63T216 40T294 34Q356 34 390 50T439 94T457 162T460 246V510H506V0H467L464 81H459Q451 57 433 37T378 5T281 -8ZM168 603V609L274
742H329L435 609V603H401L301 709L202 603H168Z" />
<glyph unicode="&#xfc;" horiz-adv-x="603" d="M281 -8Q221 -8 185 3T129 38T104 99T97 190V510H143V201Q143 147 148 114T170 63T216 40T294 34Q356 34 390 50T439 94T457 162T460 246V510H506V0H467L464 81H459Q451 57 433 37T378 5T281 -8ZM171 645V710H222V645H171ZM380
645V710H431V645H380Z" />
<glyph unicode="&#xfd;" horiz-adv-x="603" d="M284 -206Q255 -206 224 -205T163 -203T113 -199V-158Q142 -160 170 -161T226 -164T276 -165Q339 -165 376 -153T431 -116T454 -50T460 46V74H455Q449 55 431 36T378 5T281 -7Q221 -7 185 4T129 38T104 99T97 191V510H143V201Q143
147 148 114T170 63T216 40T294 34Q356 34 390 50T439 95T457 162T460 247V510H506V66Q506 -9 498 -61T466 -145T399 -191T284 -206ZM241 603V608L347 742H403V737L276 603H241Z" />
<glyph unicode="&#xfe;" horiz-adv-x="595" d="M97 -190V743H143V438H147Q160 468 183 485T242 510T324 518Q386 518 425 507T485 466T514 386T522 255Q522 176 514 125T485 44T425 4T325 -8Q254 -8 210 10T147 72H143V-190H97ZM309 34Q363 34 396 41T447 71T470
138T476 255Q476 328 470 372T447 438T397 468T309 476Q247 476 209 458T156 396Q146 369 145 334T143 255Q143 210 144 176T153 122Q170 73 207 54T309 34Z" />
<glyph unicode="&#xff;" horiz-adv-x="603" d="M284 -206Q255 -206 224 -205T163 -203T113 -199V-158Q142 -160 170 -161T226 -164T276 -165Q339 -165 376 -153T431 -116T454 -50T460 46V74H455Q449 55 431 36T378 5T281 -7Q221 -7 185 4T129 38T104 99T97 191V510H143V201Q143
147 148 114T170 63T216 40T294 34Q356 34 390 50T439 95T457 162T460 247V510H506V66Q506 -9 498 -61T466 -145T399 -191T284 -206ZM171 645V710H222V645H171ZM380 645V710H431V645H380Z" />
<glyph unicode="&#x2013;" horiz-adv-x="471" d="M63 283V325H407V283H63Z" />
<glyph unicode="&#x2014;" horiz-adv-x="872" d="M63 283V325H808V283H63Z" />
<glyph unicode="&#x2018;" horiz-adv-x="186" d="M64 511V587Q64 617 67 636T80 667T106 683T150 688V663Q128 663 117 658T102 639T98 600V583H122V511H64Z" />
<glyph unicode="&#x2019;" horiz-adv-x="186" d="M36 511V536Q60 536 71 541T85 561T88 599V616H64V688H122V612Q122 582 119 563T106 532T80 516T36 511Z" />
<glyph unicode="&#x201a;" horiz-adv-x="186" d="M36 -105V-80Q60 -80 71 -75T85 -55T88 -17V0H64V72H122V-4Q122 -34 119 -53T106 -84T80 -100T36 -105Z" />
<glyph unicode="&#x201c;" horiz-adv-x="321" d="M199 511V587Q199 617 202 636T215 667T241 683T285 688V663Q263 663 252 658T237 639T233 600V583H257V511H199ZM64 511V587Q64 617 67 636T80 667T106 683T150 688V663Q128 663 117 658T102 639T98 600V583H122V511H64Z" />
<glyph unicode="&#x201d;" horiz-adv-x="321" d="M171 511V536Q194 536 205 541T219 561T223 599V616H199V688H257V612Q257 582 254 563T241 532T215 516T171 511ZM36 511V536Q60 536 71 541T85 561T88 599V616H64V688H122V612Q122 582 119 563T106 532T80 516T36 511Z" />
<glyph unicode="&#x201e;" horiz-adv-x="321" d="M171 -105V-80Q194 -80 205 -75T219 -55T223 -17V0H199V72H257V-4Q257 -34 254 -53T241 -84T215 -100T171 -105ZM36 -105V-80Q60 -80 71 -75T85 -55T88 -17V0H64V72H122V-4Q122 -34 119 -53T106 -84T80 -100T36 -105Z" />
<glyph unicode="&#x2022;" horiz-adv-x="358" d="M178 239Q141 239 120 242T90 257T78 288T75 342Q75 377 77 397T89 429T120 444T178 448Q216 448 237 444T268 429T280 398T283 342Q283 308 281 288T269 257T238 243T178 239Z" />
<glyph unicode="&#x2039;" horiz-adv-x="304" d="M189 99L57 304L189 510H226L108 304L226 99H189Z" />
<glyph unicode="&#x203a;" horiz-adv-x="304" d="M77 99L195 304L77 510H115L247 304L115 99H77Z" />
</font>
</defs>
</svg>
