<?xml version="1.0" standalone="no"?>
<!DOCTYPE svg PUBLIC "-//W3C//DTD SVG 1.1//EN" "http://www.w3.org/Graphics/SVG/1.1/DTD/svg11.dtd">
<svg xmlns="http://www.w3.org/2000/svg">
<defs >
<font id="Saira" horiz-adv-x="564" ><font-face
    font-family="Saira Thin Light"
    units-per-em="1000"
    panose-1="0 0 0 0 0 0 0 0 0 0"
    ascent="1135"
    descent="-439"
    alphabetic="0" />
<glyph unicode=" " horiz-adv-x="230" />
<glyph unicode="!" horiz-adv-x="226" d="M91 187Q89 230 88 274T85 360T82 441T81 511T80 566V688H150V566Q150 543 150 512T148 442T145 361T142 274T139 187H91ZM78 0V83H152V0H78Z" />
<glyph unicode="&quot;" horiz-adv-x="314" d="M197 448L187 606V688H249V606L239 448H197ZM75 448L65 606V688H126V606L116 448H75Z" />
<glyph unicode="#" horiz-adv-x="810" d="M127 0L171 196H72V245H183L227 435H109V484H238L286 688H335L288 484H473L520 688H570L522 484H628V435H511L467 245H591V196H456L411 0H361L406 196H221L176 0H127ZM232 245H418L462 435H276L232 245Z" />
<glyph unicode="$" horiz-adv-x="537" d="M270 68Q238 69 206 70T144 74T90 80V133Q109 131 128 129T167 126T210 124T262 122Q322 122 352 129T392 158T402 219Q402 261 396 279T375 303T335 311L187 327Q142 333 118 348T84 391T74 465Q74 514 86 544T124 590T185
612T268 619Q299 619 328 618T384 613T435 605V552Q409 556 380 559T323 563T270 564Q239 564 215 563T172 552T145 524T135 470Q135 434 140 416T161 392T204 383L360 367Q400 363 422 350T454 307T463 220Q463 158 444 125T383 80T270 68ZM246 -8V696H296V-8H246Z"
/>
<glyph unicode="%" horiz-adv-x="812" d="M154 0L603 688H658L209 0H154ZM197 311Q148 311 120 319T79 348T62 406T58 503Q58 562 62 600T79 659T120 688T197 696Q246 696 273 688T314 659T331 600T335 503Q335 444 331 407T314 348T274 319T197 311ZM197 354Q228
354 246 357T273 374T284 417T287 503Q287 558 285 588T275 632T249 649T197 653Q166 653 148 650T120 633T109 589T106 503Q106 448 108 418T120 374T147 358T197 354ZM616 -8Q568 -8 540 0T498 29T481 87T477 184Q477 243 481 281T498 340T539 369T616 377Q665
377 693 369T734 340T751 281T755 184Q755 125 751 88T734 29T693 0T616 -8ZM616 35Q648 35 666 38T693 55T704 98T707 184Q707 239 705 269T695 313T668 330T616 334Q585 334 567 331T540 314T529 270T526 184Q526 129 528 99T540 55T567 39T616 35Z" />
<glyph unicode="&amp;" horiz-adv-x="735" d="M363 -8Q287 -8 235 0T151 25T101 65T78 118T72 184Q72 240 86 272T129 322T197 349V353Q137 367 108 403T78 515Q78 555 89 588T130 646T216 683T362 696Q393 696 431 694T506 688T572 678V627Q542 632 508 635T441
641T385 643Q304 643 255 636T181 612T148 570T140 507Q140 486 144 463T162 420T208 388T294 376H398V321H294Q239 321 207 312T159 285T139 241T134 182Q134 122 158 93T234 55T363 45Q393 45 424 46T486 51T545 59L515 24V376H694V321H576V10Q551 6 516 2T441
-5T363 -8Z" />
<glyph unicode="&apos;" horiz-adv-x="191" d="M75 448L65 606V688H126V606L116 448H75Z" />
<glyph unicode="(" horiz-adv-x="295" d="M227 -150Q194 -111 171 -79T131 -13T104 62T90 161T85 297Q85 376 89 432T104 531T130 607T170 673T227 743H275Q249 710 229 681T192 619T166 544T150 441T144 297Q144 212 149 153T165 50T192 -25T228 -87T275 -150H227Z" />
<glyph unicode=")" horiz-adv-x="295" d="M20 -150Q46 -116 66 -87T103 -26T130 50T146 152T151 297Q151 381 146 441T130 543T103 618T67 680T20 743H69Q101 705 124 673T164 607T191 531T206 433T211 297Q211 218 206 161T191 63T165 -13T125 -79T69 -150H20Z" />
<glyph unicode="*" horiz-adv-x="440" d="M196 321L203 473L73 391L49 433L185 504L49 575L73 618L203 535L196 688H244L237 535L367 618L391 575L256 504L391 433L367 391L238 473L244 321H196Z" />
<glyph unicode="+" horiz-adv-x="540" d="M244 53V227H70V278H244V453H295V278H470V227H295V53H244Z" />
<glyph unicode="," horiz-adv-x="202" d="M39 -112V-81Q63 -81 74 -76T90 -56T94 -17V0H64V83H138V4Q138 -31 134 -53T120 -89T90 -107T39 -112Z" />
<glyph unicode="-" horiz-adv-x="359" d="M62 257V314H297V257H62Z" />
<glyph unicode="." horiz-adv-x="202" d="M64 0V83H138V0H64Z" />
<glyph unicode="/" horiz-adv-x="345" d="M-2 -55L288 743H347L56 -55H-2Z" />
<glyph unicode="0" horiz-adv-x="673" d="M336 -8Q262 -8 215 0T140 29T101 89T86 191T82 344Q82 435 85 497T101 598T140 659T214 688T336 696Q411 696 458 688T533 659T572 599T587 497T591 344Q591 253 588 191T572 90T533 29T459 0T336 -8ZM336 49Q392 49
427 52T483 70T512 115T524 202T527 344Q527 430 525 485T513 572T483 618T428 635T337 639Q282 639 246 636T190 618T161 573T149 486T146 344Q146 258 148 203T160 116T190 70T246 53T336 49Z" />
<glyph unicode="1" horiz-adv-x="371" d="M188 0V613L43 540V599L205 688H252V0H188Z" />
<glyph unicode="2" horiz-adv-x="609" d="M74 0V76Q74 133 76 170T89 231T123 272T190 308L382 391Q419 407 437 422T463 460T470 517Q470 570 455 596T402 630T292 639Q267 639 232 638T159 634T88 628V681Q116 685 154 688T233 694T310 696Q357 696 397 692T469
671T517 620T534 526Q534 468 522 434T483 378T409 336L191 243Q164 231 153 216T139 176T137 112V57H534V0H74Z" />
<glyph unicode="3" horiz-adv-x="599" d="M262 -8Q232 -8 196 -6T124 0T62 8V61Q96 58 132 55T202 51T258 49Q321 49 365 57T432 94T455 182Q455 233 441 263T396 306T314 320H181V377H314Q348 377 378 387T428 426T448 507Q448 566 427 594T363 631T248 639Q222
639 190 638T126 634T66 627V680Q93 685 127 688T198 694T263 696Q335 696 383 686T459 654T500 598T512 515Q512 440 482 403T395 354V350Q433 343 461 326T504 274T520 184Q520 139 510 104T473 43T394 5T262 -8Z" />
<glyph unicode="4" horiz-adv-x="640" d="M422 0V167H50V218L322 688H394L122 224H423L433 493H486V224H591V167H486V0H422Z" />
<glyph unicode="5" horiz-adv-x="618" d="M286 -8Q256 -8 220 -6T148 -1T85 8V61Q120 58 156 55T226 51T282 49Q343 49 381 56T441 80T471 127T479 200Q479 248 470 277T438 321T374 341T266 346Q248 346 220 344T160 340T93 332V688H493V631H154V392Q175 395
201 397T257 401T313 403Q389 403 434 391T503 354T535 293T544 209Q544 149 533 107T494 40T416 4T286 -8Z" />
<glyph unicode="6" horiz-adv-x="653" d="M348 -8Q279 -8 230 -1T150 29T102 101Q94 123 90 156T84 233T82 336Q82 391 84 435T91 515T105 576Q121 625 152 651T234 686T355 696Q380 696 413 694T484 688T555 680V627Q524 631 490 633T425 637T369 639Q294 639
250 629T184 588T154 502T147 354H153Q164 367 185 378T246 397T356 405Q421 405 466 399T540 373T580 315T593 214Q593 149 584 106T548 38T474 3T348 -8ZM340 49Q398 49 435 53T492 72T521 116T529 195Q529 249 522 280T494 325T437 344T340 348Q275 348 237
342T180 321T156 283T150 227Q150 167 159 131T189 77T247 54T340 49Z" />
<glyph unicode="7" horiz-adv-x="561" d="M149 0L436 631H43V688H508V638L220 0H149Z" />
<glyph unicode="8" horiz-adv-x="682" d="M341 -8Q258 -8 206 4T127 40T89 100T79 184Q79 244 93 276T135 325T204 349V353Q142 365 114 402T85 515Q85 562 96 596T136 652T215 685T341 696Q417 696 467 685T545 652T585 596T597 515Q597 440 569 403T478 353V349Q519
341 547 325T589 277T603 184Q603 136 593 101T556 41T477 4T341 -8ZM341 49Q417 49 460 58T520 97T538 182Q538 227 530 254T500 295T440 315T341 320Q281 320 243 315T183 296T153 254T144 182Q144 126 161 97T222 59T341 49ZM341 376Q418 376 459 387T516 427T532
507Q532 560 517 588T461 628T341 640Q262 640 221 629T165 589T150 507Q150 456 165 427T222 387T341 376Z" />
<glyph unicode="9" horiz-adv-x="653" d="M298 -8Q272 -8 238 -6T167 0T98 8V61Q129 58 162 55T227 51T284 49Q359 49 403 59T469 100T498 186T506 334H500Q489 321 468 310T407 291T297 283Q232 283 187 289T113 315T73 373T60 474Q60 539 69 582T105 650T179
685T305 696Q376 696 425 689T505 660T551 588Q563 550 566 493T570 352Q570 296 568 250T561 168T544 102Q528 58 497 34T417 1T298 -8ZM313 340Q378 340 416 346T473 367T497 405T503 461Q503 521 494 557T464 611T406 634T313 639Q255 639 218 635T161 616T132
572T124 493Q124 439 131 408T159 363T216 344T313 340Z" />
<glyph unicode=":" horiz-adv-x="202" d="M64 427V510H138V427H64ZM64 0V83H138V0H64Z" />
<glyph unicode=";" horiz-adv-x="202" d="M39 -112V-81Q63 -81 74 -76T90 -56T94 -17V0H64V83H138V4Q138 -31 134 -53T120 -89T90 -107T39 -112ZM64 427V510H138V427H64Z" />
<glyph unicode="&lt;" horiz-adv-x="541" d="M471 45L71 219V286L471 461V405L118 253L471 100V45Z" />
<glyph unicode="=" horiz-adv-x="540" d="M70 327V378H470V327H70ZM70 127V178H470V127H70Z" />
<glyph unicode="&gt;" horiz-adv-x="541" d="M70 45V100L423 253L70 405V461L470 286V219L70 45Z" />
<glyph unicode="?" horiz-adv-x="500" d="M158 186V269Q158 307 165 326T190 356T237 377L269 388Q310 403 329 416T354 453T361 521Q361 575 347 600T298 632T206 639Q191 639 172 638T129 636T84 632T39 628V681Q67 685 100 688T165 694T224 696Q277 696 315
688T377 661T413 610T425 528Q425 495 422 469T411 421T385 384T338 357L309 348Q276 336 258 328T231 311T220 292T217 259V186H158ZM151 0V83H225V0H151Z" />
<glyph unicode="@" horiz-adv-x="927" d="M464 -108Q352 -108 282 -100T171 -67T113 1T91 117T86 294Q86 399 90 470T113 586T171 655T281 687T464 696Q575 696 645 688T756 656T814 588T836 471T841 294Q841 214 834 170T813 105T774 80T714 75H594L590 141H585Q573
108 548 93T492 73T433 68Q381 68 348 78T299 116T283 195Q283 243 294 271T333 311T413 323Q427 323 457 323T523 321T586 319V350Q586 392 581 416T562 451T521 465T449 469Q434 469 415 468T377 466T340 463T312 459V507Q345 512 386 515T469 518Q525 518 559
510T612 484T637 434T644 353V112H726Q745 112 759 116T782 136T795 189T799 294Q799 393 796 459T778 564T732 623T645 649Q611 655 566 656T463 658Q408 658 366 657T290 651Q231 644 198 625T150 567T131 462T127 294Q127 190 131 123T153 16T210 -41T317 -65Q339
-67 377 -68T464 -70Q492 -70 519 -70T572 -69T615 -68T644 -66V-105Q629 -106 615 -106T581 -107T533 -108T464 -108ZM447 115Q500 115 530 127T573 168T586 250V280H427Q391 280 372 275T346 252T339 198Q339 164 347 146T378 121T447 115Z" />
<glyph unicode="A" horiz-adv-x="683" d="M33 0L304 688H380L650 0H583L503 203H178L99 0H33ZM199 260H482L343 616H338L199 260Z" />
<glyph unicode="B" horiz-adv-x="684" d="M106 0V688H421Q489 688 528 667T583 607T599 516Q599 472 587 439T550 384T481 354V350Q535 341 561 316T597 255T606 181Q606 146 599 114T571 56T514 15T415 0H106ZM170 56H405Q458 56 488 70T530 113T542 188Q542
235 529 264T485 306T405 320H170V56ZM170 377H402Q446 377 475 391T520 434T535 504Q535 548 524 576T483 618T402 631H170V377Z" />
<glyph unicode="C" horiz-adv-x="576" d="M355 -8Q285 -8 237 -1T158 28T111 87T88 189T82 344Q82 435 88 497T110 599T157 659T236 688T355 696Q382 696 410 695T465 690T512 682V629Q490 632 466 634T417 638T372 639Q310 639 269 634T204 614T167 566T150 480T146
344Q146 262 150 208T166 122T203 75T269 54T372 49Q406 49 446 52T516 59V4Q495 0 467 -2T410 -6T355 -8Z" />
<glyph unicode="D" horiz-adv-x="691" d="M106 0V688H319Q402 688 455 681T539 653T585 594T604 495T608 344Q608 254 604 194T585 95T539 36T455 8T319 0H106ZM170 57H302Q371 57 416 60T487 76T525 120T540 205T544 344Q544 429 541 483T525 567T486 611T415
628T302 631H170V57Z" />
<glyph unicode="E" horiz-adv-x="601" d="M106 0V688H544V631H170V376H497V319H170V57H544V0H106Z" />
<glyph unicode="F" horiz-adv-x="563" d="M106 0V688H524V631H170V361H487V305H170V0H106Z" />
<glyph unicode="G" horiz-adv-x="679" d="M370 -8Q298 -8 248 0T165 29T115 89T90 191T82 344Q82 435 89 497T115 598T166 659T249 688T370 696Q404 696 442 694T518 687T583 677V624Q552 629 519 632T457 637T407 639Q342 639 297 636T222 620T176 575T153 488T146
344Q146 267 150 214T168 128T205 78T270 54T370 48Q393 48 421 49T477 53T523 57V305H351V361H586V11Q553 5 515 1T438 -5T370 -8Z" />
<glyph unicode="H" horiz-adv-x="734" d="M106 0V688H170V376H564V688H628V0H564V319H170V0H106Z" />
<glyph unicode="I" horiz-adv-x="277" d="M106 0V688H170V0H106Z" />
<glyph unicode="J" horiz-adv-x="341" d="M36 0V55Q90 56 119 61T161 83T176 140T179 250V688H243V273Q243 195 241 144T228 64T196 22T135 5T36 0Z" />
<glyph unicode="K" horiz-adv-x="668" d="M106 0V688H170V378H316L560 688H632L368 352L635 0H560L316 321H170V0H106Z" />
<glyph unicode="L" horiz-adv-x="537" d="M106 0V688H170V58H504V0H106Z" />
<glyph unicode="M" horiz-adv-x="910" d="M106 0V688H192L453 102H458L719 688H803V0H741V580H737L478 0H429L171 580H167V0H106Z" />
<glyph unicode="N" horiz-adv-x="734" d="M106 0V688H171L562 119H566V688H628V0H566L172 575H168V0H106Z" />
<glyph unicode="O" horiz-adv-x="721" d="M360 -8Q281 -8 230 0T148 29T104 89T86 191T82 344Q82 435 86 497T104 598T148 659T229 688T360 696Q439 696 490 688T572 659T616 599T634 497T638 344Q638 253 634 191T616 90T572 29T491 0T360 -8ZM360 49Q420 49
459 52T521 69T556 114T571 201T574 344Q574 431 571 486T556 573T521 619T459 636T360 639Q301 639 262 636T200 619T165 574T150 487T146 344Q146 257 149 202T164 115T199 69T262 52T360 49Z" />
<glyph unicode="P" horiz-adv-x="653" d="M106 0V688H402Q469 688 507 672T564 626T589 558T595 475Q595 433 590 394T565 326T506 279T401 262H170V0H106ZM170 319H384Q436 319 465 329T508 358T527 407T531 475Q531 514 528 543T510 592T467 621T385 631H170V319Z" />
<glyph unicode="Q" horiz-adv-x="721" d="M579 -115L333 218H404L653 -113V-115H579ZM360 -8Q281 -8 230 0T148 29T104 89T86 191T82 344Q82 435 86 497T104 598T148 659T229 688T360 696Q439 696 490 688T572 659T616 599T634 497T638 344Q638 253 634 191T616
90T572 29T491 0T360 -8ZM360 49Q420 49 459 52T521 69T556 114T571 201T574 344Q574 431 571 486T556 573T521 619T459 636T360 639Q301 639 262 636T200 619T165 574T150 487T146 344Q146 257 149 202T164 115T199 69T262 52T360 49Z" />
<glyph unicode="R" horiz-adv-x="683" d="M106 0V688H418Q483 688 520 672T575 628T598 563T603 485Q603 447 597 408T567 338T493 293L612 0H542L425 296L446 286Q439 284 428 283T397 282H170V0H106ZM170 339H390Q442 339 472 349T516 378T535 424T539 485Q539
520 536 547T519 593T478 621T401 631H170V339Z" />
<glyph unicode="S" horiz-adv-x="632" d="M331 -8Q294 -8 251 -7T167 -2T93 5V61Q128 58 168 55T246 51T312 49Q364 49 397 53T456 71Q474 81 482 98T492 138T494 187Q494 226 492 250T480 286T448 305T387 315L211 334Q163 339 135 353T94 389T77 441T73 509Q73
569 88 606T134 662T210 689T316 696Q354 696 393 694T467 689T524 681V627Q497 631 463 633T393 637T326 639Q267 639 231 634T173 613Q149 599 143 572T137 509Q137 466 143 443T168 409T228 395L398 376Q437 373 467 367T517 346T547 301Q552 288 554 272T558
236T559 192Q559 136 549 99T518 41T470 9T407 -5T331 -8Z" />
<glyph unicode="T" horiz-adv-x="581" d="M259 0V630H35V688H547V630H323V0H259Z" />
<glyph unicode="U" horiz-adv-x="712" d="M357 -8Q286 -8 239 0T164 29T121 84T102 171T97 298V688H161V266Q161 199 166 157T190 91T248 58T357 49Q426 49 465 58T522 90T545 156T550 266V688H614V298Q614 224 610 172T592 84T549 29T474 1T357 -8Z" />
<glyph unicode="V" horiz-adv-x="663" d="M293 0L34 688H101L330 80H335L563 688H629L369 0H293Z" />
<glyph unicode="W" horiz-adv-x="986" d="M236 0L41 688H108L273 91H279L461 688H528L711 91H717L880 688H945L750 0H677L495 586H491L309 0H236Z" />
<glyph unicode="X" horiz-adv-x="674" d="M34 0L298 346L38 688H115L335 400H342L563 688H637L376 347L640 0H564L340 292H332L108 0H34Z" />
<glyph unicode="Y" horiz-adv-x="605" d="M270 0V271L15 688H86L300 336H307L521 688H589L334 271V0H270Z" />
<glyph unicode="Z" horiz-adv-x="604" d="M56 0V54L464 631H67V688H545V635L137 56H551V0H56Z" />
<glyph unicode="[" horiz-adv-x="324" d="M106 -150V743H283V695L164 691V-98L283 -102V-150H106Z" />
<glyph unicode="\" horiz-adv-x="345" d="M289 -55L-2 743H57L347 -55H289Z" />
<glyph unicode="]" horiz-adv-x="324" d="M41 -150V-102L160 -98V691L41 695V743H218V-150H41Z" />
<glyph unicode="^" horiz-adv-x="462" d="M59 444L198 749H264L403 444H350L231 707L112 444H59Z" />
<glyph unicode="_" horiz-adv-x="350" d="M0 -166V-115H350V-166H0Z" />
<glyph unicode="`" horiz-adv-x="173" d="M128 600L0 733V738H69L173 605V600H128Z" />
<glyph unicode="a" horiz-adv-x="571" d="M234 -8Q175 -8 136 4T79 48T60 139Q60 196 73 228T119 275T213 289Q224 289 247 289T300 287T360 286T418 284V322Q418 372 412 400T389 443T338 461T253 465Q230 465 200 464T142 460T94 454V505Q129 511 176 514T275
518Q327 518 363 512T422 493T457 458T474 403T479 325V0H425L422 77H417Q402 39 372 21T305 -3T234 -8ZM251 44Q282 44 311 47T362 61T396 96Q408 121 413 148T418 209V242H229Q185 242 161 235T128 207T119 143Q119 102 129 81T168 52T251 44Z" />
<glyph unicode="b" horiz-adv-x="593" d="M329 -8Q292 -8 258 -2T196 22T154 77H149L146 0H92V743H153V441H158Q171 470 194 487T252 511T331 518Q390 518 427 506T486 465T515 385T523 255Q523 176 515 125T485 45T427 4T329 -8ZM307 47Q358 47 389 54T435 82T456
144T462 255Q462 324 457 365T436 428T389 456T307 463Q250 463 217 448T170 400Q159 370 156 336T153 255Q153 211 155 176T170 111Q183 77 217 62T307 47Z" />
<glyph unicode="c" horiz-adv-x="459" d="M274 -8Q217 -8 180 1T121 31T87 81T73 155T69 255Q69 315 74 359T91 433T126 482T184 509T270 518Q304 518 341 515T404 506V454Q379 459 346 462T284 465Q234 465 204 456T157 425T136 361T130 256Q130 189 135 147T157
83T205 53T287 45Q316 45 350 48T409 56V5Q385 -1 347 -4T274 -8Z" />
<glyph unicode="d" horiz-adv-x="593" d="M263 -8Q204 -8 166 4T107 45T78 125T69 255Q69 333 77 384T107 465T165 506T262 518Q306 518 340 511T398 487T434 441H439V743H500V0H447L444 77H439Q424 40 397 22T335 -2T263 -8ZM285 47Q343 47 377 62T424 112Q435
144 437 179T439 265Q439 301 437 333T426 390Q412 430 378 446T282 463Q233 463 203 456T157 428T136 366T130 255Q130 186 136 145T157 82T204 54T285 47Z" />
<glyph unicode="e" horiz-adv-x="560" d="M293 -8Q233 -8 193 -1T128 25T91 73T74 148T69 254Q69 327 75 377T101 459T167 504T292 518Q349 518 385 510T443 483T475 433T488 358T491 255V234H130Q130 176 135 139T157 81T209 52T305 44Q330 44 360 46T419 50T471
57V6Q451 2 421 -1T358 -6T293 -8ZM432 263V296Q432 353 425 387T402 438T359 460T289 466Q236 466 204 459T156 433T135 377T130 281H451L432 263Z" />
<glyph unicode="f" horiz-adv-x="360" d="M133 0V457H28V510H133V606Q133 644 140 669T162 708T200 730T255 740T328 743V694Q287 694 262 691T221 680T200 657T194 616V510H328V457H194V0H133Z" />
<glyph unicode="g" horiz-adv-x="593" d="M276 -206Q244 -206 210 -205T146 -202T93 -198V-147Q119 -148 149 -150T209 -152T264 -153Q323 -153 358 -144T411 -112T434 -49T439 53V71H435Q422 42 399 25T342 1T263 -6Q204 -6 166 5T107 45T78 125T69 255Q69 334
77 385T107 465T166 506T264 518Q300 518 335 512T397 488T439 432H444L447 510H500V69Q500 -8 493 -60T463 -145T396 -191T276 -206ZM285 48Q343 48 376 63T423 114Q435 142 437 176T439 255Q439 299 437 333T426 391Q411 431 377 447T285 463Q235 463 204 456T158
428T136 366T130 255Q130 187 136 146T157 83T204 55T285 48Z" />
<glyph unicode="h" horiz-adv-x="601" d="M92 0V743H153V439H158Q167 460 185 477T237 506T329 518Q387 518 422 507T477 472T502 410T509 320V0H448V301Q448 355 443 387T423 435T380 457T307 463Q251 463 220 449T174 408T157 345T153 264V0H92Z" />
<glyph unicode="i" horiz-adv-x="246" d="M89 666V743H157V666H89ZM92 0V510H153V0H92Z" />
<glyph unicode="j" horiz-adv-x="246" d="M89 666V743H157V666H89ZM-6 -200V-151Q39 -151 60 -146T86 -129T92 -95V510H153V-80Q153 -122 145 -146T117 -182T68 -196T-6 -200Z" />
<glyph unicode="k" horiz-adv-x="529" d="M92 0V743H153V286H227L421 510H492L276 263L495 0H422L227 232H153V0H92Z" />
<glyph unicode="l" horiz-adv-x="246" d="M92 0V743H153V0H92Z" />
<glyph unicode="m" horiz-adv-x="887" d="M92 0V510H146L149 432H154Q162 456 179 475T228 506T312 518Q383 518 417 498T464 432H470Q478 456 496 475T547 506T632 518Q702 518 737 498T783 434T794 320V0H733V301Q733 355 729 387T712 435T675 457T610 463Q560
463 532 450T492 411T477 348T474 264V0H413V301Q413 355 409 387T392 435T355 457T290 463Q240 463 212 449T172 408T156 345T153 264V0H92Z" />
<glyph unicode="n" horiz-adv-x="601" d="M92 0V510H146L149 432H154Q164 457 182 476T236 506T329 518Q387 518 422 507T477 472T502 410T509 320V0H448V301Q448 355 443 387T423 435T380 457T307 463Q251 463 220 449T174 408T157 345T153 264V0H92Z" />
<glyph unicode="o" horiz-adv-x="578" d="M289 -8Q227 -8 187 -1T122 23T87 70T73 145T69 255Q69 319 72 364T87 440T122 487T186 511T289 518Q351 518 391 511T456 487T491 440T506 365T509 255Q509 191 506 146T492 70T456 23T392 -1T289 -8ZM289 45Q349 45
381 53T428 82T445 145T448 255Q448 322 445 364T428 428T382 457T289 465Q230 465 197 458T150 428T133 364T130 255Q130 187 133 146T150 83T197 53T289 45Z" />
<glyph unicode="p" horiz-adv-x="593" d="M92 -200V510H146L149 432H154Q168 469 195 487T257 512T329 518Q389 518 426 506T485 465T514 385T523 255Q523 177 515 126T486 45T428 4T331 -8Q286 -8 252 -1T195 23T158 69H153V-200H92ZM307 47Q358 47 389 54T435
82T456 144T462 255Q462 324 457 365T436 428T389 456T307 463Q250 463 216 447T168 394Q158 367 156 333T153 255Q153 211 155 178T165 123Q180 81 214 64T307 47Z" />
<glyph unicode="q" horiz-adv-x="593" d="M439 -200V69H435Q422 40 398 23T340 -1T262 -8Q203 -8 166 4T107 45T78 125T69 255Q69 333 77 384T107 465T166 506T263 518Q300 518 335 512T397 488T439 432H444L447 510H500V-200H439ZM285 47Q344 47 378 64T426 120Q435
145 437 178T439 255Q439 299 437 334T422 400Q410 433 376 448T285 463Q235 463 204 456T158 428T136 366T130 255Q130 186 136 145T157 82T204 54T285 47Z" />
<glyph unicode="r" horiz-adv-x="355" d="M92 0V510H145L149 407H154Q166 452 191 476T250 509T327 518V457Q256 457 219 434T167 362T153 244V0H92Z" />
<glyph unicode="s" horiz-adv-x="499" d="M255 -8Q228 -8 196 -7T132 -2T76 4V56Q104 53 127 51T171 48T213 46T259 45Q313 45 338 54T372 83T381 137Q381 176 375 193T353 216T310 224L171 239Q126 244 102 258T69 299T60 371Q60 421 73 450T111 494T173 513T256
518Q281 518 309 517T364 512T412 505V453Q384 458 358 460T305 464T248 465Q208 465 179 461T135 438T119 375Q119 342 124 325T145 302T189 293L329 279Q372 275 395 264T429 224T440 138Q440 92 429 64T395 20T337 -2T255 -8Z" />
<glyph unicode="t" horiz-adv-x="345" d="M133 0V457H28V510H133V658H194V510H318V457H194V0H133Z" />
<glyph unicode="u" horiz-adv-x="601" d="M272 -8Q214 -8 179 3T124 38T99 100T92 190V510H153V209Q153 156 158 124T178 75T221 53T294 47Q350 47 381 61T427 102T444 165T448 246V510H509V0H455L452 78H447Q438 54 419 35T365 4T272 -8Z" />
<glyph unicode="v" horiz-adv-x="526" d="M227 0L30 510H95L260 69H267L432 510H495L299 0H227Z" />
<glyph unicode="w" horiz-adv-x="811" d="M204 0L35 510H99L236 81H243L376 510H436L570 81H577L714 510H776L606 0H538L408 408H401L272 0H204Z" />
<glyph unicode="x" horiz-adv-x="542" d="M35 0L233 259L41 510H113L269 307H274L431 510H500L309 260L508 0H435L273 212H267L104 0H35Z" />
<glyph unicode="y" horiz-adv-x="601" d="M283 -206Q254 -206 223 -205T163 -202T112 -198V-147Q143 -149 171 -150T224 -152T271 -153Q332 -153 368 -143T421 -109T443 -48T448 43V72H443Q435 52 417 34T365 5T272 -6Q214 -6 179 5T124 40T99 101T92 191V510H153V210Q153
156 158 124T178 76T221 54T294 48Q350 48 381 62T427 103T444 166T448 247V510H509V65Q509 -10 501 -61T469 -145T401 -191T283 -206Z" />
<glyph unicode="z" horiz-adv-x="503" d="M53 0V48L368 457H65V510H447V462L134 53H449V0H53Z" />
<glyph unicode="{" horiz-adv-x="314" d="M242 -150Q221 -139 201 -120T166 -77T142 -25T133 35V150Q133 180 125 209T93 257T28 277V315Q70 315 93 334T124 383T133 443V558Q133 588 142 616T166 669T201 713T242 743H294Q273 730 255 711T222 668T200 619T191
568V447Q191 389 171 351T99 299V294Q150 281 170 243T191 146V25Q191 0 199 -25T222 -74T254 -117T294 -150H242Z" />
<glyph unicode="|" horiz-adv-x="272" d="M107 -161V743H164V-161H107Z" />
<glyph unicode="}" horiz-adv-x="314" d="M20 -150Q40 -137 58 -118T91 -75T113 -26T122 25V146Q122 204 143 242T214 294V299Q165 312 144 350T122 447V568Q122 593 114 618T91 667T59 710T20 743H71Q93 732 112 713T147 670T171 617T180 558V443Q180 413 189
384T220 335T285 315V277Q243 277 221 258T189 209T180 150V35Q180 4 172 -24T148 -77T113 -120T71 -150H20Z" />
<glyph unicode="~" horiz-adv-x="497" d="M72 244Q72 281 76 304T95 338T140 349Q170 349 200 342T260 324Q283 316 307 310T354 303Q376 303 381 315T387 360H425Q425 323 421 300T401 266T356 255Q326 255 297 263T236 281Q213 288 189 295T143 302Q121 302
116 289T110 244H72Z" />
<glyph unicode="&#xa0;" horiz-adv-x="230" />
<glyph unicode="&#xa1;" horiz-adv-x="223" d="M77 -178V-56Q77 -33 77 -2T79 68T81 149T84 236T88 323H135Q137 280 138 236T141 150T144 69T145 -1T146 -56V-178H77ZM74 427V510H149V427H74Z" />
<glyph unicode="&#xa2;" horiz-adv-x="467" d="M274 68Q208 68 168 82T106 129T78 213T70 342Q70 408 76 455T96 534T134 584T192 611T273 619Q297 619 320 618T366 613T409 606V552Q386 558 352 561T286 563Q238 563 208 555T162 524T140 458T134 343Q134 272
140 229T162 162T209 131T289 122Q318 122 354 125T414 135V81Q398 77 377 74T330 70T274 68ZM253 -8V696H304V-8H253Z" />
<glyph unicode="&#xa3;" horiz-adv-x="586" d="M56 0V57H130V329H56V385H131V423Q131 504 142 557T182 640T259 683T381 696Q420 696 460 692T526 682V629Q506 632 483 634T435 638T388 639Q327 639 289 631T231 599T203 533T195 423V385H451V329H195V57H538V0H56Z" />
<glyph unicode="&#xa4;" horiz-adv-x="737" d="M105 -12L69 23L176 130Q158 161 153 213T148 344Q148 422 152 473T175 557L69 663L106 699L213 592Q237 607 274 613T368 619Q425 619 462 613T524 591L632 699L668 664L561 557Q579 526 583 474T588 344Q588 265
584 213T561 130L668 23L632 -13L523 96Q499 81 462 75T368 69Q312 69 275 75T214 96L105 -12ZM368 122Q428 122 460 130T507 162T524 228T527 344Q527 415 524 459T507 526T461 558T368 566Q309 566 276 558T230 527T213 459T210 344Q210 272 213 229T229 162T276
131T368 122Z" />
<glyph unicode="&#xa5;" horiz-adv-x="621" d="M278 0V249H70V295H259L35 688H105L308 318H315L518 688H585L361 295H550V249H342V0H278ZM70 404V450H550V404H70Z" />
<glyph unicode="&#xa6;" horiz-adv-x="272" d="M107 390V743H164V390H107ZM107 -161V192H164V-161H107Z" />
<glyph unicode="&#xa7;" horiz-adv-x="697" d="M327 -171Q295 -171 262 -169T201 -165T155 -159V-106Q175 -108 200 -110T253 -113T305 -115Q365 -115 404 -111T462 -87T482 -25Q482 12 477 31T456 61T413 78L175 143Q147 151 126 160T92 184T71 222T64 281Q64
309 67 337T81 390T113 430T171 448Q157 469 155 495T153 548Q153 594 167 623T209 667T278 689T371 696Q403 696 435 695T496 690T542 684V631Q512 635 470 637T392 639Q333 639 294 635T235 612T215 550Q215 513 221 494T246 463T301 442L525 380Q550 374 569
365T603 341T625 303T633 243Q633 216 630 187T616 134T584 94T526 76Q539 55 541 29T544 -24Q544 -69 530 -98T487 -142T419 -164T327 -171ZM125 297Q125 264 130 246T149 217T191 199L437 132Q460 126 475 122T501 118Q536 118 554 144T573 227Q573 260 568 278T546
307T497 327L262 390Q237 397 222 401T196 406Q161 406 143 380T125 297Z" />
<glyph unicode="&#xa8;" horiz-adv-x="270" d="M0 638V709H62V638H0ZM208 638V709H270V638H208Z" />
<glyph unicode="&#xa9;" horiz-adv-x="729" d="M364 -8Q283 -8 231 -1T150 27T107 87T91 189T87 344Q87 436 90 499T107 601T149 660T231 688T364 696Q446 696 497 689T579 661T622 601T638 499T642 344Q642 252 639 189T622 87T579 28T498 0T364 -8ZM387 154Q339
154 310 161T265 187T245 244T239 343Q239 404 244 441T265 499T309 526T387 533Q412 533 436 531T474 526V488Q458 490 436 491T395 493Q357 493 335 489T301 471T287 426T283 343Q283 292 286 262T301 217T334 198T395 193Q415 193 438 194T476 198V159Q460 157
435 156T387 154ZM364 26Q435 26 480 30T550 51T587 103T602 196T605 344Q605 433 602 491T588 584T551 635T480 657T364 662Q294 662 249 657T178 636T141 585T127 492T124 344Q124 254 126 196T140 103T178 52T249 31T364 26Z" />
<glyph unicode="&#xaa;" horiz-adv-x="405" d="M169 315Q126 315 98 323T57 355T43 423Q43 465 52 488T85 522T155 532Q166 532 190 532T244 530T297 528V553Q297 599 289 619T257 645T181 651Q164 651 143 650T102 648T67 643V687Q91 691 126 693T199 696Q246
696 276 689T321 666T342 623T348 555V319H303L298 362H294Q280 340 259 330T215 318T169 315ZM182 356Q204 356 225 358T262 369T285 394Q292 411 294 429T297 471V493H167Q121 493 106 481T91 426Q91 384 109 370T182 356Z" />
<glyph unicode="&#xab;" horiz-adv-x="465" d="M184 99L52 304L184 510H230L114 304L230 99H184ZM345 99L213 304L345 510H391L275 304L391 99H345Z" />
<glyph unicode="&#xac;" horiz-adv-x="539" d="M417 53V228H70V281H469V53H417Z" />
<glyph unicode="&#xad;" horiz-adv-x="359" d="M62 257V314H297V257H62Z" />
<glyph unicode="&#xae;" horiz-adv-x="729" d="M364 -8Q283 -8 231 -1T150 27T107 87T91 189T87 344Q87 436 90 499T107 601T149 660T231 688T364 696Q446 696 497 689T579 661T622 601T638 499T642 344Q642 252 639 189T622 87T579 28T498 0T364 -8ZM364 26Q435
26 480 30T550 51T587 103T602 196T605 344Q605 433 602 491T588 584T551 635T480 657T364 662Q294 662 249 657T178 636T141 585T127 492T124 344Q124 254 126 196T140 103T178 52T249 31T364 26ZM234 157V529H400Q450 529 471 513T498 472T504 418Q504 386 495
356T449 313L512 157H463L406 306H278V157H234ZM278 345H384Q420 345 436 354T456 379T460 417Q460 440 457 456T439 480T391 489H278V345Z" />
<glyph unicode="&#xaf;" horiz-adv-x="278" d="M0 638V683H278V638H0Z" />
<glyph unicode="&#xb0;" horiz-adv-x="387" d="M194 397Q149 397 123 403T85 426T70 472T66 546Q66 590 69 619T85 665T123 689T194 696Q239 696 265 689T303 666T318 620T321 546Q321 502 318 473T303 427T265 404T194 397ZM194 437Q234 437 251 445T271 476T274
546Q274 592 271 616T251 648T194 656Q154 656 137 648T116 616T113 546Q113 500 116 477T136 445T194 437Z" />
<glyph unicode="&#xb1;" horiz-adv-x="540" d="M244 184V359H70V410H244V584H295V410H470V359H295V184H244ZM70 0V51H470V0H70Z" />
<glyph unicode="&#xb2;" horiz-adv-x="357" d="M43 420V464Q43 507 46 531T62 569T107 595L217 638Q238 646 248 652T261 669T264 699Q264 726 256 738T226 755T167 759Q146 759 113 758T51 752V792Q75 796 112 799T181 802Q218 802 248 797T296 771T314 704Q314
673 307 654T284 622T242 599L119 551Q107 547 101 542T94 525T92 492V463H314V420H43Z" />
<glyph unicode="&#xb3;" horiz-adv-x="351" d="M154 416Q129 416 95 418T36 425V464Q65 462 97 460T149 458Q201 458 228 468T256 522Q256 561 239 575T179 590H102V632H179Q199 632 215 636T242 655T252 695Q252 724 241 737T206 755T143 759Q121 759 92 758T38
753V792Q62 796 95 799T155 802Q211 802 243 792T288 761T302 703Q302 661 284 641T234 613V611Q268 606 287 587T307 520Q307 486 295 463T251 428T154 416Z" />
<glyph unicode="&#xb4;" horiz-adv-x="173" d="M0 600V605L104 739H173V734L46 600H0Z" />
<glyph unicode="&#xb5;" horiz-adv-x="601" d="M92 -190V510H153V209Q153 156 158 124T178 75T221 53T294 47Q350 47 381 61T427 102T444 165T448 246V510H509V0H455L452 78H447Q438 54 419 35T365 4T272 -8Q233 -8 204 0T153 24T117 67L171 35H153V-190H92Z" />
<glyph unicode="&#xb6;" horiz-adv-x="574" d="M313 -144V222Q243 222 198 227T127 245T88 284T73 351T69 454Q69 515 72 556T88 624T126 664T198 683T313 688H364V-144H313ZM430 -144V688H480V-144H430Z" />
<glyph unicode="&#xb7;" horiz-adv-x="202" d="M64 258V341H138V258H64Z" />
<glyph unicode="&#xb8;" horiz-adv-x="107" d="M0 -190V-185L65 18H107V13L63 -190H0Z" />
<glyph unicode="&#xb9;" horiz-adv-x="223" d="M108 420V742L23 702V746L120 797H157V420H108Z" />
<glyph unicode="&#xba;" horiz-adv-x="418" d="M209 314Q153 314 120 322T72 352T53 410T48 504Q48 561 52 598T72 657T120 687T209 696Q266 696 298 687T346 657T365 599T370 504Q370 447 366 410T346 352T299 323T209 314ZM209 357Q251 357 273 362T305 383T316
428T319 504Q319 550 317 579T305 624T274 646T209 652Q168 652 145 646T113 625T102 580T99 504Q99 457 101 428T113 384T145 363T209 357Z" />
<glyph unicode="&#xbb;" horiz-adv-x="465" d="M74 99L190 304L74 510H120L252 304L120 99H74ZM235 99L351 304L235 510H281L413 304L281 99H235Z" />
<glyph unicode="&#xbc;" horiz-adv-x="663" d="M108 308V630L23 590V634L120 685H157V308H108ZM40 0L489 688H544L95 0H40ZM530 0V87H319V124L466 377H521L373 129H531L542 261H579V129H637V87H579V0H530Z" />
<glyph unicode="&#xbd;" horiz-adv-x="719" d="M108 308V630L23 590V634L120 685H157V308H108ZM40 0L489 688H544L95 0H40ZM404 0V44Q404 87 407 111T423 149T468 175L578 218Q599 226 609 232T622 249T625 279Q625 306 617 318T587 335T528 339Q507 339 474 338T412
332V372Q436 376 473 379T542 382Q579 382 609 377T657 351T675 284Q675 253 668 234T645 202T603 179L480 131Q468 127 462 122T455 105T453 72V43H675V0H404Z" />
<glyph unicode="&#xbe;" horiz-adv-x="791" d="M154 304Q129 304 95 306T36 313V352Q65 350 97 348T149 346Q201 346 228 356T256 410Q256 449 239 463T179 478H102V520H179Q199 520 215 525T242 543T252 583Q252 612 241 625T206 643T143 647Q121 647 92 646T38
641V680Q62 684 95 687T155 690Q211 690 243 680T288 649T302 591Q302 549 284 529T234 501V499Q268 494 287 475T307 408Q307 374 295 351T251 316T154 304ZM168 0L617 688H672L223 0H168ZM658 0V87H447V124L594 377H649L501 129H659L670 261H707V129H765V87H707V0H658Z"
/>
<glyph unicode="&#xbf;" horiz-adv-x="433" d="M268 -186Q214 -186 176 -178T114 -151T78 -100T66 -18Q66 15 69 41T80 89T107 127T154 153L205 171Q229 180 243 186T264 200T272 219T274 251V324H333V241Q333 204 326 184T302 154T256 133L227 123Q185 109 165
95T137 57T130 -11Q130 -64 145 -89T194 -122T286 -129Q301 -129 320 -128T362 -126T408 -122T452 -118V-171Q424 -175 391 -178T326 -184T268 -186ZM266 427V510H340V427H266Z" />
<glyph unicode="&#xc0;" horiz-adv-x="683" d="M33 0L304 688H380L650 0H583L503 203H178L99 0H33ZM199 260H482L343 616H338L199 260ZM351 778L223 912V917H292L396 783V778H351Z" />
<glyph unicode="&#xc1;" horiz-adv-x="683" d="M33 0L304 688H380L650 0H583L503 203H178L99 0H33ZM199 260H482L343 616H338L199 260ZM297 778V783L401 917H470V912L343 778H297Z" />
<glyph unicode="&#xc2;" horiz-adv-x="683" d="M33 0L304 688H380L650 0H583L503 203H178L99 0H33ZM199 260H482L343 616H338L199 260ZM204 778V784L308 918H376L480 784V778H437L342 880L247 778H204Z" />
<glyph unicode="&#xc3;" horiz-adv-x="683" d="M33 0L304 688H380L650 0H583L503 203H178L99 0H33ZM199 260H482L343 616H338L199 260ZM175 788Q175 826 179 849T199 883T244 894Q272 894 299 886T353 868Q374 861 394 854T437 847Q460 847 465 860T470 905H508Q508
868 504 845T485 810T440 799Q410 799 385 807T331 825Q309 833 289 839T246 846Q225 846 220 834T214 788H175Z" />
<glyph unicode="&#xc4;" horiz-adv-x="683" d="M33 0L304 688H380L650 0H583L503 203H178L99 0H33ZM199 260H482L343 616H338L199 260ZM206 816V887H268V816H206ZM414 816V887H476V816H414Z" />
<glyph unicode="&#xc5;" horiz-adv-x="683" d="M33 0L304 688H380L650 0H583L503 203H178L99 0H33ZM199 260H482L343 616H338L199 260ZM349 657Q306 657 282 662T247 679T232 710T229 756Q229 783 232 802T246 833T282 850T349 856Q392 856 417 851T453 833T467
802T470 756Q470 729 467 710T453 680T417 663T349 657ZM349 693Q388 693 404 698T423 717T427 756Q427 781 424 795T404 815T349 821Q312 821 296 815T276 795T272 756Q272 732 275 718T295 698T349 693Z" />
<glyph unicode="&#xc6;" horiz-adv-x="951" d="M-4 0L339 688H895V631H431L506 376H848V319H520L597 57H895V0H545L487 203H162L61 0H-4ZM189 260H472L371 616H366L189 260Z" />
<glyph unicode="&#xc7;" horiz-adv-x="576" d="M355 -8Q285 -8 237 -1T158 28T111 87T88 189T82 344Q82 435 88 497T110 599T157 659T236 688T355 696Q382 696 410 695T465 690T512 682V629Q490 632 466 634T417 638T372 639Q310 639 269 634T204 614T167 566T150
480T146 344Q146 262 150 208T166 122T203 75T269 54T372 49Q406 49 446 52T516 59V4Q495 0 467 -2T410 -6T355 -8ZM250 -190V-185L315 18H357V13L313 -190H250Z" />
<glyph unicode="&#xc8;" horiz-adv-x="601" d="M106 0V688H544V631H170V376H497V319H170V57H544V0H106ZM340 778L212 912V917H281L385 783V778H340Z" />
<glyph unicode="&#xc9;" horiz-adv-x="601" d="M106 0V688H544V631H170V376H497V319H170V57H544V0H106ZM286 778V783L390 917H459V912L332 778H286Z" />
<glyph unicode="&#xca;" horiz-adv-x="601" d="M106 0V688H544V631H170V376H497V319H170V57H544V0H106ZM193 778V784L297 918H365L469 784V778H426L331 880L236 778H193Z" />
<glyph unicode="&#xcb;" horiz-adv-x="601" d="M106 0V688H544V631H170V376H497V319H170V57H544V0H106ZM196 816V887H258V816H196ZM404 816V887H466V816H404Z" />
<glyph unicode="&#xcc;" horiz-adv-x="277" d="M106 0V688H170V0H106ZM147 778L19 912V917H88L192 783V778H147Z" />
<glyph unicode="&#xcd;" horiz-adv-x="277" d="M106 0V688H170V0H106ZM93 778V783L197 917H266V912L139 778H93Z" />
<glyph unicode="&#xce;" horiz-adv-x="277" d="M106 0V688H170V0H106ZM0 778V784L104 918H172L276 784V778H233L138 880L43 778H0Z" />
<glyph unicode="&#xcf;" horiz-adv-x="277" d="M106 0V688H170V0H106ZM3 816V887H65V816H3ZM211 816V887H273V816H211Z" />
<glyph unicode="&#xd0;" horiz-adv-x="691" d="M106 0V321H37V376H106V688H319Q402 688 455 681T539 653T585 594T604 495T608 344Q608 254 604 194T585 95T539 36T455 8T319 0H106ZM170 57H302Q371 57 416 60T487 76T525 120T540 205T544 344Q544 429 541 483T525
567T486 611T415 628T302 631H170V376H289V321H170V57Z" />
<glyph unicode="&#xd1;" horiz-adv-x="734" d="M106 0V688H171L562 119H566V688H628V0H566L172 575H168V0H106ZM210 788Q210 826 214 849T234 883T279 894Q307 894 334 886T388 868Q409 861 429 854T472 847Q495 847 500 860T505 905H543Q543 868 539 845T520
810T475 799Q445 799 420 807T366 825Q344 833 324 839T281 846Q260 846 255 834T249 788H210Z" />
<glyph unicode="&#xd2;" horiz-adv-x="721" d="M360 -8Q281 -8 230 0T148 29T104 89T86 191T82 344Q82 435 86 497T104 598T148 659T229 688T360 696Q439 696 490 688T572 659T616 599T634 497T638 344Q638 253 634 191T616 90T572 29T491 0T360 -8ZM360 49Q420
49 459 52T521 69T556 114T571 201T574 344Q574 431 571 486T556 573T521 619T459 636T360 639Q301 639 262 636T200 619T165 574T150 487T146 344Q146 257 149 202T164 115T199 69T262 52T360 49ZM369 778L241 912V917H310L414 783V778H369Z" />
<glyph unicode="&#xd3;" horiz-adv-x="721" d="M360 -8Q281 -8 230 0T148 29T104 89T86 191T82 344Q82 435 86 497T104 598T148 659T229 688T360 696Q439 696 490 688T572 659T616 599T634 497T638 344Q638 253 634 191T616 90T572 29T491 0T360 -8ZM360 49Q420
49 459 52T521 69T556 114T571 201T574 344Q574 431 571 486T556 573T521 619T459 636T360 639Q301 639 262 636T200 619T165 574T150 487T146 344Q146 257 149 202T164 115T199 69T262 52T360 49ZM316 778V783L420 917H489V912L362 778H316Z" />
<glyph unicode="&#xd4;" horiz-adv-x="721" d="M360 -8Q281 -8 230 0T148 29T104 89T86 191T82 344Q82 435 86 497T104 598T148 659T229 688T360 696Q439 696 490 688T572 659T616 599T634 497T638 344Q638 253 634 191T616 90T572 29T491 0T360 -8ZM360 49Q420
49 459 52T521 69T556 114T571 201T574 344Q574 431 571 486T556 573T521 619T459 636T360 639Q301 639 262 636T200 619T165 574T150 487T146 344Q146 257 149 202T164 115T199 69T262 52T360 49ZM222 778V784L326 918H394L498 784V778H455L360 880L265 778H222Z"
/>
<glyph unicode="&#xd5;" horiz-adv-x="721" d="M360 -8Q281 -8 230 0T148 29T104 89T86 191T82 344Q82 435 86 497T104 598T148 659T229 688T360 696Q439 696 490 688T572 659T616 599T634 497T638 344Q638 253 634 191T616 90T572 29T491 0T360 -8ZM360 49Q420
49 459 52T521 69T556 114T571 201T574 344Q574 431 571 486T556 573T521 619T459 636T360 639Q301 639 262 636T200 619T165 574T150 487T146 344Q146 257 149 202T164 115T199 69T262 52T360 49ZM194 788Q194 826 198 849T218 883T263 894Q291 894 318 886T372
868Q393 861 413 854T456 847Q479 847 484 860T489 905H527Q527 868 523 845T504 810T459 799Q429 799 404 807T350 825Q328 833 308 839T265 846Q244 846 239 834T233 788H194Z" />
<glyph unicode="&#xd6;" horiz-adv-x="721" d="M360 -8Q281 -8 230 0T148 29T104 89T86 191T82 344Q82 435 86 497T104 598T148 659T229 688T360 696Q439 696 490 688T572 659T616 599T634 497T638 344Q638 253 634 191T616 90T572 29T491 0T360 -8ZM360 49Q420
49 459 52T521 69T556 114T571 201T574 344Q574 431 571 486T556 573T521 619T459 636T360 639Q301 639 262 636T200 619T165 574T150 487T146 344Q146 257 149 202T164 115T199 69T262 52T360 49ZM225 816V887H287V816H225ZM433 816V887H495V816H433Z" />
<glyph unicode="&#xd7;" horiz-adv-x="476" d="M105 84L70 120L202 252L69 384L105 421L238 288L371 421L406 385L274 253L406 120L370 84L237 216L105 84Z" />
<glyph unicode="&#xd8;" horiz-adv-x="721" d="M82 -55L579 743H638L140 -55H82ZM360 -8Q281 -8 230 0T148 29T104 89T86 191T82 344Q82 435 86 497T104 598T148 659T229 688T360 696Q439 696 490 688T572 659T616 599T634 497T638 344Q638 253 634 191T616 90T572
29T491 0T360 -8ZM360 49Q420 49 459 52T521 69T556 114T571 201T574 344Q574 431 571 486T556 573T521 619T459 636T360 639Q301 639 262 636T200 619T165 574T150 487T146 344Q146 257 149 202T164 115T199 69T262 52T360 49Z" />
<glyph unicode="&#xd9;" horiz-adv-x="712" d="M357 -8Q286 -8 239 0T164 29T121 84T102 171T97 298V688H161V266Q161 199 166 157T190 91T248 58T357 49Q426 49 465 58T522 90T545 156T550 266V688H614V298Q614 224 610 172T592 84T549 29T474 1T357 -8ZM365
778L237 912V917H306L410 783V778H365Z" />
<glyph unicode="&#xda;" horiz-adv-x="712" d="M357 -8Q286 -8 239 0T164 29T121 84T102 171T97 298V688H161V266Q161 199 166 157T190 91T248 58T357 49Q426 49 465 58T522 90T545 156T550 266V688H614V298Q614 224 610 172T592 84T549 29T474 1T357 -8ZM312
778V783L416 917H485V912L358 778H312Z" />
<glyph unicode="&#xdb;" horiz-adv-x="712" d="M357 -8Q286 -8 239 0T164 29T121 84T102 171T97 298V688H161V266Q161 199 166 157T190 91T248 58T357 49Q426 49 465 58T522 90T545 156T550 266V688H614V298Q614 224 610 172T592 84T549 29T474 1T357 -8ZM218
778V784L322 918H390L494 784V778H451L356 880L261 778H218Z" />
<glyph unicode="&#xdc;" horiz-adv-x="712" d="M357 -8Q286 -8 239 0T164 29T121 84T102 171T97 298V688H161V266Q161 199 166 157T190 91T248 58T357 49Q426 49 465 58T522 90T545 156T550 266V688H614V298Q614 224 610 172T592 84T549 29T474 1T357 -8ZM221
816V887H283V816H221ZM429 816V887H491V816H429Z" />
<glyph unicode="&#xdd;" horiz-adv-x="605" d="M270 0V271L15 688H86L300 336H307L521 688H589L334 271V0H270ZM258 778V783L362 917H431V912L304 778H258Z" />
<glyph unicode="&#xde;" horiz-adv-x="653" d="M106 0V688H170V563H402Q469 563 507 547T564 501T589 433T595 350Q595 308 590 269T565 201T506 155T401 138H170V0H106ZM170 194H384Q436 194 465 204T508 233T527 282T531 350Q531 389 528 418T510 467T467 497T385
507H170V194Z" />
<glyph unicode="&#xdf;" horiz-adv-x="610" d="M92 0V534Q92 608 113 656T183 727T319 750Q383 750 424 739T488 706T521 652T531 576Q531 515 503 483T415 441V437Q477 427 508 384T540 242Q540 175 533 129T504 55T443 13T338 0H255V52H318Q371 52 403 57T452
81T474 136T479 237Q479 306 466 343T419 395T324 410H288V462H324Q378 462 410 473T456 508T470 574Q470 621 457 648T410 686T312 697Q258 697 223 685T170 636T153 526V0H92Z" />
<glyph unicode="&#xe0;" horiz-adv-x="571" d="M234 -8Q175 -8 136 4T79 48T60 139Q60 196 73 228T119 275T213 289Q224 289 247 289T300 287T360 286T418 284V322Q418 372 412 400T389 443T338 461T253 465Q230 465 200 464T142 460T94 454V505Q129 511 176 514T275
518Q327 518 363 512T422 493T457 458T474 403T479 325V0H425L422 77H417Q402 39 372 21T305 -3T234 -8ZM251 44Q282 44 311 47T362 61T396 96Q408 121 413 148T418 209V242H229Q185 242 161 235T128 207T119 143Q119 102 129 81T168 52T251 44ZM297 600L169 733V738H238L342
605V600H297Z" />
<glyph unicode="&#xe1;" horiz-adv-x="571" d="M234 -8Q175 -8 136 4T79 48T60 139Q60 196 73 228T119 275T213 289Q224 289 247 289T300 287T360 286T418 284V322Q418 372 412 400T389 443T338 461T253 465Q230 465 200 464T142 460T94 454V505Q129 511 176 514T275
518Q327 518 363 512T422 493T457 458T474 403T479 325V0H425L422 77H417Q402 39 372 21T305 -3T234 -8ZM251 44Q282 44 311 47T362 61T396 96Q408 121 413 148T418 209V242H229Q185 242 161 235T128 207T119 143Q119 102 129 81T168 52T251 44ZM222 600V605L326
739H395V734L268 600H222Z" />
<glyph unicode="&#xe2;" horiz-adv-x="571" d="M234 -8Q175 -8 136 4T79 48T60 139Q60 196 73 228T119 275T213 289Q224 289 247 289T300 287T360 286T418 284V322Q418 372 412 400T389 443T338 461T253 465Q230 465 200 464T142 460T94 454V505Q129 511 176 514T275
518Q327 518 363 512T422 493T457 458T474 403T479 325V0H425L422 77H417Q402 39 372 21T305 -3T234 -8ZM251 44Q282 44 311 47T362 61T396 96Q408 121 413 148T418 209V242H229Q185 242 161 235T128 207T119 143Q119 102 129 81T168 52T251 44ZM150 600V605L254
739H322L426 605V600H383L288 701L193 600H150Z" />
<glyph unicode="&#xe3;" horiz-adv-x="571" d="M234 -8Q175 -8 136 4T79 48T60 139Q60 196 73 228T119 275T213 289Q224 289 247 289T300 287T360 286T418 284V322Q418 372 412 400T389 443T338 461T253 465Q230 465 200 464T142 460T94 454V505Q129 511 176 514T275
518Q327 518 363 512T422 493T457 458T474 403T479 325V0H425L422 77H417Q402 39 372 21T305 -3T234 -8ZM251 44Q282 44 311 47T362 61T396 96Q408 121 413 148T418 209V242H229Q185 242 161 235T128 207T119 143Q119 102 129 81T168 52T251 44ZM121 610Q121 648
125 671T145 705T190 716Q218 716 245 708T299 690Q320 683 340 676T383 669Q406 669 411 682T416 727H454Q454 690 450 667T431 632T386 621Q356 621 331 629T277 647Q255 655 235 661T192 668Q171 668 166 656T160 610H121Z" />
<glyph unicode="&#xe4;" horiz-adv-x="571" d="M234 -8Q175 -8 136 4T79 48T60 139Q60 196 73 228T119 275T213 289Q224 289 247 289T300 287T360 286T418 284V322Q418 372 412 400T389 443T338 461T253 465Q230 465 200 464T142 460T94 454V505Q129 511 176 514T275
518Q327 518 363 512T422 493T457 458T474 403T479 325V0H425L422 77H417Q402 39 372 21T305 -3T234 -8ZM251 44Q282 44 311 47T362 61T396 96Q408 121 413 148T418 209V242H229Q185 242 161 235T128 207T119 143Q119 102 129 81T168 52T251 44ZM153 638V709H215V638H153ZM361
638V709H423V638H361Z" />
<glyph unicode="&#xe5;" horiz-adv-x="571" d="M234 -8Q175 -8 136 4T79 48T60 139Q60 196 73 228T119 275T213 289Q224 289 247 289T300 287T360 286T418 284V322Q418 372 412 400T389 443T338 461T253 465Q230 465 200 464T142 460T94 454V505Q129 511 176 514T275
518Q327 518 363 512T422 493T457 458T474 403T479 325V0H425L422 77H417Q402 39 372 21T305 -3T234 -8ZM251 44Q282 44 311 47T362 61T396 96Q408 121 413 148T418 209V242H229Q185 242 161 235T128 207T119 143Q119 102 129 81T168 52T251 44ZM287 586Q244 586
220 591T185 608T170 639T167 685Q167 712 170 731T184 762T220 779T287 785Q330 785 355 780T391 762T405 731T408 685Q408 658 405 639T391 609T355 592T287 586ZM287 622Q326 622 342 627T361 646T365 685Q365 710 362 724T342 744T287 750Q250 750 234 744T214
724T210 685Q210 661 213 647T233 627T287 622Z" />
<glyph unicode="&#xe6;" horiz-adv-x="910" d="M240 -8Q195 -8 161 -2T104 21T71 65T60 139Q60 195 73 226T119 272T213 286Q243 286 277 286T348 286T418 285V322Q418 372 412 400T389 443T338 461T253 465Q230 465 199 464T140 460T94 454V505Q125 510 172 514T275
518Q351 518 392 505T453 455Q475 489 518 503T641 518Q698 518 734 510T792 483T824 434T837 360T840 258V238H479Q479 179 484 141T506 82T558 53T654 44Q679 44 709 46T768 50T820 57V6Q800 2 770 -1T707 -6T642 -8Q581 -8 542 0T479 27T442 81Q422 40 389 21T318
-3T240 -8ZM251 44Q283 44 312 47T364 63T398 101Q409 125 413 150T418 209V238H229Q185 238 161 232T128 205T119 143Q119 102 129 81T168 52T251 44ZM781 256Q782 325 778 366T758 429T715 458T638 466Q585 466 553 459T505 434T484 379T479 284H808L781 256Z"
/>
<glyph unicode="&#xe7;" horiz-adv-x="459" d="M274 -8Q217 -8 180 1T121 31T87 81T73 155T69 255Q69 315 74 359T91 433T126 482T184 509T270 518Q304 518 341 515T404 506V454Q379 459 346 462T284 465Q234 465 204 456T157 425T136 361T130 256Q130 189 135
147T157 83T205 53T287 45Q316 45 350 48T409 56V5Q385 -1 347 -4T274 -8ZM194 -190V-185L259 18H301V13L257 -190H194Z" />
<glyph unicode="&#xe8;" horiz-adv-x="560" d="M293 -8Q233 -8 193 -1T128 25T91 73T74 148T69 254Q69 327 75 377T101 459T167 504T292 518Q349 518 385 510T443 483T475 433T488 358T491 255V234H130Q130 176 135 139T157 81T209 52T305 44Q330 44 360 46T419
50T471 57V6Q451 2 421 -1T358 -6T293 -8ZM432 263V296Q432 353 425 387T402 438T359 460T289 466Q236 466 204 459T156 433T135 377T130 281H451L432 263ZM294 600L166 733V738H235L339 605V600H294Z" />
<glyph unicode="&#xe9;" horiz-adv-x="560" d="M293 -8Q233 -8 193 -1T128 25T91 73T74 148T69 254Q69 327 75 377T101 459T167 504T292 518Q349 518 385 510T443 483T475 433T488 358T491 255V234H130Q130 176 135 139T157 81T209 52T305 44Q330 44 360 46T419
50T471 57V6Q451 2 421 -1T358 -6T293 -8ZM432 263V296Q432 353 425 387T402 438T359 460T289 466Q236 466 204 459T156 433T135 377T130 281H451L432 263ZM219 600V605L323 739H392V734L265 600H219Z" />
<glyph unicode="&#xea;" horiz-adv-x="560" d="M293 -8Q233 -8 193 -1T128 25T91 73T74 148T69 254Q69 327 75 377T101 459T167 504T292 518Q349 518 385 510T443 483T475 433T488 358T491 255V234H130Q130 176 135 139T157 81T209 52T305 44Q330 44 360 46T419
50T471 57V6Q451 2 421 -1T358 -6T293 -8ZM432 263V296Q432 353 425 387T402 438T359 460T289 466Q236 466 204 459T156 433T135 377T130 281H451L432 263ZM147 600V605L251 739H319L423 605V600H380L285 701L190 600H147Z" />
<glyph unicode="&#xeb;" horiz-adv-x="560" d="M293 -8Q233 -8 193 -1T128 25T91 73T74 148T69 254Q69 327 75 377T101 459T167 504T292 518Q349 518 385 510T443 483T475 433T488 358T491 255V234H130Q130 176 135 139T157 81T209 52T305 44Q330 44 360 46T419
50T471 57V6Q451 2 421 -1T358 -6T293 -8ZM432 263V296Q432 353 425 387T402 438T359 460T289 466Q236 466 204 459T156 433T135 377T130 281H451L432 263ZM150 638V709H212V638H150ZM358 638V709H420V638H358Z" />
<glyph unicode="&#xec;" horiz-adv-x="246" d="M92 0V510H153V0H92ZM132 600L4 733V738H73L177 605V600H132Z" />
<glyph unicode="&#xed;" horiz-adv-x="246" d="M92 0V510H153V0H92ZM56 600V605L160 739H229V734L102 600H56Z" />
<glyph unicode="&#xee;" horiz-adv-x="246" d="M92 0V510H153V0H92ZM241 600V605L345 739H413L517 605V600H474L379 701L284 600H241Z" />
<glyph unicode="&#xef;" horiz-adv-x="246" d="M92 0V510H153V0H92ZM244 638V709H306V638H244ZM452 638V709H514V638H452Z" />
<glyph unicode="&#xf0;" horiz-adv-x="579" d="M289 -8Q227 -8 187 -1T122 23T87 70T73 146T69 254Q69 331 74 382T100 463T162 505T279 518Q326 518 359 510T416 487L421 489Q407 532 389 567T351 630L231 609V655L320 670Q297 696 278 713T247 739V743H316Q326
736 343 721T382 680L486 698V653L411 640Q438 600 462 543T497 424Q502 397 504 370T508 319T509 275Q509 205 506 157T493 76T459 25T394 0T289 -8ZM289 44Q349 44 381 52T428 81T445 144T448 254Q448 310 445 350T428 415T382 453T289 465Q230 465 197 457T150
427T133 364T130 254Q130 186 133 145T150 82T197 52T289 44Z" />
<glyph unicode="&#xf1;" horiz-adv-x="601" d="M92 0V510H146L149 432H154Q164 457 182 476T236 506T329 518Q387 518 422 507T477 472T502 410T509 320V0H448V301Q448 355 443 387T423 435T380 457T307 463Q251 463 220 449T174 408T157 345T153 264V0H92ZM133
610Q133 648 137 671T157 705T202 716Q230 716 257 708T311 690Q332 683 352 676T395 669Q418 669 423 682T428 727H466Q466 690 462 667T443 632T398 621Q368 621 343 629T289 647Q267 655 247 661T204 668Q183 668 178 656T172 610H133Z" />
<glyph unicode="&#xf2;" horiz-adv-x="578" d="M289 -8Q227 -8 187 -1T122 23T87 70T73 145T69 255Q69 319 72 364T87 440T122 487T186 511T289 518Q351 518 391 511T456 487T491 440T506 365T509 255Q509 191 506 146T492 70T456 23T392 -1T289 -8ZM289 45Q349
45 381 53T428 82T445 145T448 255Q448 322 445 364T428 428T382 457T289 465Q230 465 197 458T150 428T133 364T130 255Q130 187 133 146T150 83T197 53T289 45ZM298 600L170 733V738H239L343 605V600H298Z" />
<glyph unicode="&#xf3;" horiz-adv-x="578" d="M289 -8Q227 -8 187 -1T122 23T87 70T73 145T69 255Q69 319 72 364T87 440T122 487T186 511T289 518Q351 518 391 511T456 487T491 440T506 365T509 255Q509 191 506 146T492 70T456 23T392 -1T289 -8ZM289 45Q349
45 381 53T428 82T445 145T448 255Q448 322 445 364T428 428T382 457T289 465Q230 465 197 458T150 428T133 364T130 255Q130 187 133 146T150 83T197 53T289 45ZM222 600V605L326 739H395V734L268 600H222Z" />
<glyph unicode="&#xf4;" horiz-adv-x="578" d="M289 -8Q227 -8 187 -1T122 23T87 70T73 145T69 255Q69 319 72 364T87 440T122 487T186 511T289 518Q351 518 391 511T456 487T491 440T506 365T509 255Q509 191 506 146T492 70T456 23T392 -1T289 -8ZM289 45Q349
45 381 53T428 82T445 145T448 255Q448 322 445 364T428 428T382 457T289 465Q230 465 197 458T150 428T133 364T130 255Q130 187 133 146T150 83T197 53T289 45ZM151 600V605L255 739H323L427 605V600H384L289 701L194 600H151Z" />
<glyph unicode="&#xf5;" horiz-adv-x="578" d="M289 -8Q227 -8 187 -1T122 23T87 70T73 145T69 255Q69 319 72 364T87 440T122 487T186 511T289 518Q351 518 391 511T456 487T491 440T506 365T509 255Q509 191 506 146T492 70T456 23T392 -1T289 -8ZM289 45Q349
45 381 53T428 82T445 145T448 255Q448 322 445 364T428 428T382 457T289 465Q230 465 197 458T150 428T133 364T130 255Q130 187 133 146T150 83T197 53T289 45ZM122 610Q122 648 126 671T146 705T191 716Q219 716 246 708T300 690Q321 683 341 676T384 669Q407
669 412 682T417 727H455Q455 690 451 667T432 632T387 621Q357 621 332 629T278 647Q256 655 236 661T193 668Q172 668 167 656T161 610H122Z" />
<glyph unicode="&#xf6;" horiz-adv-x="578" d="M289 -8Q227 -8 187 -1T122 23T87 70T73 145T69 255Q69 319 72 364T87 440T122 487T186 511T289 518Q351 518 391 511T456 487T491 440T506 365T509 255Q509 191 506 146T492 70T456 23T392 -1T289 -8ZM289 45Q349
45 381 53T428 82T445 145T448 255Q448 322 445 364T428 428T382 457T289 465Q230 465 197 458T150 428T133 364T130 255Q130 187 133 146T150 83T197 53T289 45ZM154 638V709H216V638H154ZM362 638V709H424V638H362Z" />
<glyph unicode="&#xf7;" horiz-adv-x="540" d="M70 227V278H470V227H70ZM240 29V99H300V29H240ZM240 407V477H300V407H240Z" />
<glyph unicode="&#xf8;" horiz-adv-x="578" d="M70 -55L454 565H508L123 -55H70ZM289 -8Q227 -8 187 -1T122 23T87 70T73 145T69 255Q69 319 72 364T87 440T122 487T186 511T289 518Q351 518 391 511T456 487T491 440T506 365T509 255Q509 191 506 146T492 70T456
23T392 -1T289 -8ZM289 45Q349 45 381 53T428 82T445 145T448 255Q448 322 445 364T428 428T382 457T289 465Q230 465 197 458T150 428T133 364T130 255Q130 187 133 146T150 83T197 53T289 45Z" />
<glyph unicode="&#xf9;" horiz-adv-x="601" d="M272 -8Q214 -8 179 3T124 38T99 100T92 190V510H153V209Q153 156 158 124T178 75T221 53T294 47Q350 47 381 61T427 102T444 165T448 246V510H509V0H455L452 78H447Q438 54 419 35T365 4T272 -8ZM309 600L181 733V738H250L354
605V600H309Z" />
<glyph unicode="&#xfa;" horiz-adv-x="601" d="M272 -8Q214 -8 179 3T124 38T99 100T92 190V510H153V209Q153 156 158 124T178 75T221 53T294 47Q350 47 381 61T427 102T444 165T448 246V510H509V0H455L452 78H447Q438 54 419 35T365 4T272 -8ZM234 600V605L338
739H407V734L280 600H234Z" />
<glyph unicode="&#xfb;" horiz-adv-x="601" d="M272 -8Q214 -8 179 3T124 38T99 100T92 190V510H153V209Q153 156 158 124T178 75T221 53T294 47Q350 47 381 61T427 102T444 165T448 246V510H509V0H455L452 78H447Q438 54 419 35T365 4T272 -8ZM162 600V605L266
739H334L438 605V600H395L300 701L205 600H162Z" />
<glyph unicode="&#xfc;" horiz-adv-x="601" d="M272 -8Q214 -8 179 3T124 38T99 100T92 190V510H153V209Q153 156 158 124T178 75T221 53T294 47Q350 47 381 61T427 102T444 165T448 246V510H509V0H455L452 78H447Q438 54 419 35T365 4T272 -8ZM165 638V709H227V638H165ZM373
638V709H435V638H373Z" />
<glyph unicode="&#xfd;" horiz-adv-x="601" d="M283 -206Q254 -206 223 -205T163 -202T112 -198V-147Q143 -149 171 -150T224 -152T271 -153Q332 -153 368 -143T421 -109T443 -48T448 43V72H443Q435 52 417 34T365 5T272 -6Q214 -6 179 5T124 40T99 101T92 191V510H153V210Q153
156 158 124T178 76T221 54T294 48Q350 48 381 62T427 103T444 166T448 247V510H509V65Q509 -10 501 -61T469 -145T401 -191T283 -206ZM234 600V605L338 739H407V734L280 600H234Z" />
<glyph unicode="&#xfe;" horiz-adv-x="593" d="M92 -190V743H153V440H158Q171 470 195 487T252 511T329 518Q389 518 426 506T485 465T514 385T523 255Q523 177 515 126T486 45T428 4T331 -8Q264 -8 221 9T158 69H153V-190H92ZM307 47Q358 47 389 54T435 82T456
144T462 255Q462 324 457 365T436 428T389 456T307 463Q251 463 217 447T167 392Q157 367 155 333T153 255Q153 212 155 179T164 127Q180 83 214 65T307 47Z" />
<glyph unicode="&#xff;" horiz-adv-x="601" d="M283 -206Q254 -206 223 -205T163 -202T112 -198V-147Q143 -149 171 -150T224 -152T271 -153Q332 -153 368 -143T421 -109T443 -48T448 43V72H443Q435 52 417 34T365 5T272 -6Q214 -6 179 5T124 40T99 101T92 191V510H153V210Q153
156 158 124T178 76T221 54T294 48Q350 48 381 62T427 103T444 166T448 247V510H509V65Q509 -10 501 -61T469 -145T401 -191T283 -206ZM165 638V709H227V638H165ZM373 638V709H435V638H373Z" />
<glyph unicode="&#x2013;" horiz-adv-x="471" d="M60 278V330H411V278H60Z" />
<glyph unicode="&#x2014;" horiz-adv-x="872" d="M60 278V330H812V278H60Z" />
<glyph unicode="&#x2018;" horiz-adv-x="200" d="M64 497V574Q64 609 68 631T82 665T111 683T161 688V658Q138 658 126 653T111 634T107 595V578H136V497H64Z" />
<glyph unicode="&#x2019;" horiz-adv-x="200" d="M39 497V527Q63 527 74 532T90 551T94 590V607H64V688H136V610Q136 576 133 554T119 520T89 502T39 497Z" />
<glyph unicode="&#x201a;" horiz-adv-x="200" d="M39 -110V-80Q63 -80 74 -75T90 -56T94 -17V0H64V81H136V4Q136 -31 133 -52T119 -87T89 -105T39 -110Z" />
<glyph unicode="&#x201c;" horiz-adv-x="347" d="M210 497V574Q210 609 214 631T228 665T258 683T308 688V658Q285 658 273 653T257 634T253 595V578H283V497H210ZM64 497V574Q64 609 68 631T82 665T111 683T161 688V658Q138 658 126 653T111 634T107 595V578H136V497H64Z"
/>
<glyph unicode="&#x201d;" horiz-adv-x="347" d="M186 497V527Q209 527 221 532T236 551T240 590V607H210V688H283V610Q283 576 279 554T265 520T236 502T186 497ZM39 497V527Q63 527 74 532T90 551T94 590V607H64V688H136V610Q136 576 133 554T119 520T89 502T39 497Z" />
<glyph unicode="&#x201e;" horiz-adv-x="347" d="M186 -110V-80Q209 -80 221 -75T236 -56T240 -17V0H210V81H283V4Q283 -31 279 -52T265 -87T236 -105T186 -110ZM39 -110V-80Q63 -80 74 -75T90 -56T94 -17V0H64V81H136V4Q136 -31 133 -52T119 -87T89 -105T39 -110Z" />
<glyph unicode="&#x2022;" horiz-adv-x="363" d="M180 236Q142 236 121 240T90 255T78 287T75 342Q75 377 77 398T90 431T121 446T180 451Q219 451 241 447T273 431T285 399T288 342Q288 308 286 287T273 255T241 240T180 236Z" />
<glyph unicode="&#x2039;" horiz-adv-x="305" d="M184 99L52 304L184 510H230L114 304L230 99H184Z" />
<glyph unicode="&#x203a;" horiz-adv-x="305" d="M74 99L190 304L74 510H120L252 304L120 99H74Z" />
</font>
</defs>
</svg>
